<svg viewBox="275 285 1945 1895" version="1.1" xmlns="http://www.w3.org/2000/svg" style="max-height: 500px" width="1945" height="1895">
  
  <g>
    <g id="Background">
      <rect style="fill: #fff;" height="2500" width="2500"/>
    </g>
    <g id="Illustration">
      <g id="Pension_scheme">
        <g>
          <g>
            <g>
              <path d="M1341.311,364.558c-.197,0-.398-.025-.598-.079-85.042-22.69-173.949-29.886-264.254-21.392-1.272.151-2.403-.816-2.523-2.087-.12-1.273.815-2.404,2.088-2.521,90.856-8.557,180.308-1.305,265.882,21.528,1.236.328,1.97,1.599,1.641,2.833-.277,1.036-1.213,1.719-2.236,1.719Z"/>
              <path d="M999.131,354.138c-1.089,0-2.058-.769-2.271-1.877-.242-1.257.58-2.472,1.836-2.714,11.978-2.304,24.16-4.367,36.206-6.128,1.256-.195,2.441.687,2.625,1.956.185,1.264-.69,2.44-1.956,2.625-11.977,1.752-24.09,3.803-36,6.096-.148.027-.295.041-.44.041Z"/>
            </g>
            <path d="M866.493,431.091c-.943,0-1.829-.581-2.173-1.517-.441-1.201.174-2.53,1.375-2.971,106.055-38.944,214.256-52.985,321.588-41.703,1.272.133,2.195,1.273,2.061,2.544-.135,1.271-1.275,2.191-2.545,2.06-106.627-11.196-214.122,2.75-319.507,41.445-.264.097-.533.142-.798.142Z"/>
          </g>
          <g>
            <path d="M836.441,472.355h-.071l-15.863-.482c-1.279-.041-2.283-1.108-2.244-2.386.039-1.28,1.12-2.311,2.385-2.245l15.863.482c1.279.041,2.283,1.108,2.244,2.386-.038,1.255-1.067,2.245-2.313,2.245Z"/>
            <path d="M780.921,470.664h-.071l-15.863-.482c-1.279-.041-2.283-1.108-2.244-2.386.039-1.28,1.074-2.313,2.385-2.245l15.863.482c1.279.041,2.283,1.108,2.244,2.386-.038,1.255-1.067,2.245-2.313,2.245Z"/>
            <path d="M799.457,506.949c-.028,0-.057,0-.085-.002-1.278-.045-2.277-1.119-2.231-2.397l.574-15.856c.046-1.28,1.154-2.311,2.398-2.23,1.278.045,2.277,1.119,2.231,2.397l-.574,15.856c-.045,1.251-1.073,2.232-2.313,2.232Z"/>
            <path d="M801.466,451.447c-.028,0-.056,0-.085-.002-1.278-.045-2.277-1.119-2.231-2.397l.574-15.859c.046-1.28,1.124-2.32,2.398-2.23,1.278.045,2.277,1.119,2.231,2.397l-.574,15.859c-.045,1.251-1.073,2.232-2.313,2.232Z"/>
          </g>
        </g>
        <g>
          <rect style="fill: #fff;" transform="translate(3027.926 2463.808) rotate(180)" height="725.892" width="943.957" y="868.958" x="1041.985"/>
          <g>
            <path style="fill: #fff;" d="M815.805,552.613h687.948l-567.265,255.591-639.423-15.996c-2.233,0-2.89-3.043-.857-3.965l519.597-235.63Z"/>
            <path d="M936.489,810.52h-.059l-639.422-15.997c-2.028,0-3.793-1.425-4.234-3.462-.441-2.038.578-4.064,2.477-4.925l519.597-235.632c.301-.136.626-.206.956-.206h687.949c1.091,0,2.034.762,2.264,1.829.23,1.067-.318,2.148-1.313,2.598l-567.266,255.59c-.298.133-.623.204-.95.204ZM298.121,789.919l637.897,15.956,556.96-250.945h-676.672l-518.185,234.989Z"/>
          </g>
          <polygon style="fill: #fff;" points="974.035 792.398 2038.302 792.398 1504.524 552.624 974.035 792.398"/>
          <rect style="fill: #fff;" transform="translate(1383.304 2461.747) rotate(180)" height="725.363" width="700.067" y="868.192" x="341.619"/>
          <g>
            <rect style="fill: #fff;" height="725.892" width="67.84" y="868.958" x="1740.248"/>
            <rect style="fill: #fff;" height="725.892" width="67.84" y="868.958" x="1565.136"/>
            <rect style="fill: #fff;" height="725.892" width="67.84" y="868.958" x="1390.025"/>
            <rect style="fill: #fff;" height="725.892" width="67.84" y="868.958" x="1214.913"/>
            <rect style="fill: #fff;" height="725.892" width="67.84" y="868.958" x="1041.985"/>
            <rect style="fill: #fff;" height="725.892" width="67.84" y="868.958" x="1915.359"/>
          </g>
          <path style="fill: #fff;" d="M901.999,869.076h-190.772,190.772Z"/>
          <g>
            <rect style="fill: #fff;" transform="translate(2324.737 3354.171) rotate(180)" height="164.471" width="240.768" y="1594.85" x="1041.985"/>
            <path d="M1282.753,1761.637h-240.768c-1.279,0-2.316-1.036-2.316-2.316v-164.472c0-1.28,1.037-2.316,2.316-2.316h240.768c1.279,0,2.316,1.036,2.316,2.316v164.472c0,1.28-1.037,2.316-2.316,2.316ZM1044.3,1757.006h236.137v-159.841h-236.137v159.841Z"/>
          </g>
          <g>
            <rect style="fill: #fff;" transform="translate(3024.884 1661.786) rotate(180)" height="76.366" width="941.513" y="792.71" x="1041.685"/>
            <path d="M1983.199,871.392h-941.513c-1.279,0-2.316-1.036-2.316-2.316v-76.367c0-1.28,1.037-2.316,2.316-2.316h941.513c1.279,0,2.315,1.036,2.315,2.316v76.367c0,1.28-1.037,2.316-2.315,2.316ZM1044.001,866.761h936.882v-71.736h-936.882v71.736Z"/>
          </g>
          <rect style="fill: #fff;" transform="translate(3721.607 3354.171) rotate(180)" height="164.471" width="240.887" y="1594.85" x="1740.36"/>
          <g>
            <rect style="fill: #fff;" transform="translate(3021.745 3354.171) rotate(180)" height="164.471" width="456.24" y="1594.85" x="1282.753"/>
            <path d="M1738.993,1761.637h-456.24c-1.279,0-2.316-1.036-2.316-2.316v-164.472c0-1.28,1.037-2.316,2.316-2.316h456.24c1.279,0,2.316,1.036,2.316,2.316v164.472c0,1.28-1.037,2.316-2.316,2.316ZM1285.068,1757.006h451.609v-159.841h-451.609v159.841Z"/>
          </g>
          <g>
            <path style="fill: #fff;" d="M1041.686,869.076v-76.367H341.619v76.248h-.08v725.893h-.486v164.47h699.921v-164.47h-106.26v-725.774h106.973ZM409.378,1594.85v-725.774h107.273v725.774h-107.273ZM584.49,1594.85v-725.774h107.271v725.774h-107.271ZM759.601,1594.85v-725.774h107.272v725.774h-107.272Z"/>
            <path d="M1040.973,1761.637H341.052c-1.279,0-2.316-1.036-2.316-2.316v-164.47c0-.536.182-1.027.486-1.42v-724.472c0-.21.028-.414.08-.606v-75.643c0-1.28,1.037-2.316,2.316-2.316h700.067c1.279,0,2.316,1.036,2.316,2.316v76.367c0,1.28-1.037,2.316-2.316,2.316h-104.657v721.144h103.945c1.279,0,2.316,1.036,2.316,2.316v164.47c0,1.28-1.037,2.316-2.316,2.316ZM343.368,1757.006h695.29v-159.839h-103.945c-1.279,0-2.316-1.036-2.316-2.316v-725.775c0-1.28,1.037-2.316,2.316-2.316h104.657v-71.736H343.934v73.934c0,.21-.028.414-.08.606v725.287c0,.536-.181,1.027-.486,1.42v160.735ZM866.873,1597.167h-107.272c-1.279,0-2.316-1.036-2.316-2.316v-725.775c0-1.28,1.037-2.316,2.316-2.316h107.272c1.279,0,2.316,1.036,2.316,2.316v725.775c0,1.28-1.037,2.316-2.316,2.316ZM761.917,1592.536h102.641v-721.144h-102.641v721.144ZM691.761,1597.167h-107.271c-1.279,0-2.316-1.036-2.316-2.316v-725.775c0-1.28,1.037-2.316,2.316-2.316h107.271c1.279,0,2.316,1.036,2.316,2.316v725.775c0,1.28-1.037,2.316-2.316,2.316ZM586.806,1592.536h102.64v-721.144h-102.64v721.144ZM516.65,1597.167h-107.273c-1.279,0-2.315-1.036-2.315-2.316v-725.775c0-1.28,1.037-2.316,2.315-2.316h107.273c1.279,0,2.316,1.036,2.316,2.316v725.775c0,1.28-1.037,2.316-2.316,2.316ZM411.694,1592.536h102.641v-721.144h-102.641v721.144Z"/>
          </g>
          <g>
            <path style="fill: #fff;" d="M1443.707,1630.978h-112.544c-1.279,0-2.316-1.036-2.316-2.316s1.037-2.316,2.316-2.316h112.544c1.279,0,2.316,1.036,2.316,2.316s-1.037,2.316-2.316,2.316Z"/>
            <path style="fill: #fff;" d="M1498.207,1663.846h-167.044c-1.279,0-2.316-1.036-2.316-2.316s1.037-2.316,2.316-2.316h167.044c1.279,0,2.316,1.036,2.316,2.316s-1.037,2.316-2.316,2.316Z"/>
            <path style="fill: #fff;" d="M1553.6,1696.715h-222.437c-1.279,0-2.316-1.036-2.316-2.316s1.037-2.316,2.316-2.316h222.437c1.279,0,2.316,1.036,2.316,2.316s-1.037,2.316-2.316,2.316Z"/>
            <path style="fill: #fff;" d="M1695.897,1729.581h-364.734c-1.279,0-2.316-1.036-2.316-2.316s1.037-2.316,2.316-2.316h364.734c1.279,0,2.316,1.036,2.316,2.316s-1.037,2.316-2.316,2.316Z"/>
          </g>
          <g>
            <path d="M1041.984,1568.265c-1.279,0-2.316-1.036-2.316-2.316v-664.371c0-1.28,1.037-2.316,2.316-2.316s2.316,1.036,2.316,2.316v664.371c0,1.28-1.037,2.316-2.316,2.316Z"/>
            <path d="M1983.199,1597.165c-1.279,0-2.316-1.036-2.316-2.316v-698.053c0-1.28,1.037-2.315,2.316-2.315s2.315,1.036,2.315,2.315v698.053c0,1.28-1.037,2.316-2.315,2.316Z"/>
          </g>
          <g>
            <rect style="fill: #fff;" transform="translate(3721.607 3354.171) rotate(180)" height="164.471" width="240.887" y="1594.85" x="1740.36"/>
            <path d="M1981.247,1761.637h-240.887c-1.279,0-2.316-1.036-2.316-2.316v-164.472c0-1.28,1.037-2.316,2.316-2.316h240.887c1.279,0,2.316,1.036,2.316,2.316v164.472c0,1.28-1.037,2.316-2.316,2.316ZM1742.676,1757.006h236.256v-159.841h-236.256v159.841Z"/>
          </g>
        </g>
        <g>
          <g>
            <g>
              <g>
                <path d="M1058.408,2069.17h966.666c26.59,0,48.145-21.511,48.144-48.045l-.059-1344.367c-.698-36.003-18.074-56.652-48.09-56.652h-966.667c-23.897,0-44.267,17.376-48.09,41.024l-.047,1359.995c0,26.534,21.554,48.044,48.144,48.044Z"/>
                <g>
                  <path style="fill: #fff;" d="M1018.437,2070.424h966.796c26.594,0,48.152-21.557,48.151-48.148l-.059-1347.086c-.697-36.081-18.077-56.594-48.097-56.594h-966.814c-23.9,0-44.273,17.441-48.096,41.139l-.033,1362.542c0,26.591,21.558,48.147,48.151,48.147Z"/>
                  <path d="M1985.234,2072.738h-966.796c-27.828,0-50.467-22.636-50.467-50.461l.033-1362.542c0-.124.01-.247.029-.369,4.029-24.967,25.217-43.087,50.382-43.087h966.815c31.316,0,49.69,21.455,50.413,58.864l.059,1347.131c.001,13.48-5.248,26.152-14.781,35.684-9.531,9.531-22.205,14.78-35.686,14.78ZM972.634,659.922l-.033,1362.354c0,25.27,20.562,45.83,45.836,45.83h966.796c12.244,0,23.754-4.767,32.412-13.423,8.657-8.656,13.425-20.166,13.424-32.409l-.059-1347.086c-.676-34.987-16.935-54.278-45.782-54.278h-966.815c-22.82,0-42.044,16.394-45.78,39.012Z"/>
                </g>
              </g>
              <g>
                <g>
                  <rect style="fill: #fff;" ry="24.094" rx="24.094" height="146.255" width="491.756" y="576.302" x="1269.539"/>
                  <path d="M1737.201,724.872h-443.567c-14.563,0-26.41-11.847-26.41-26.41v-98.067c0-14.563,11.847-26.41,26.41-26.41h443.567c14.563,0,26.41,11.847,26.41,26.41v98.067c0,14.563-11.847,26.41-26.41,26.41ZM1293.634,578.617c-12.009,0-21.779,9.769-21.779,21.779v98.067c0,12.01,9.77,21.779,21.779,21.779h443.567c12.009,0,21.779-9.769,21.779-21.779v-98.067c0-12.01-9.77-21.779-21.779-21.779h-443.567Z"/>
                </g>
                <g>
                  <path style="fill: #fff;" d="M1515.167,457.842c-46.499,0-84.009,37.691-84.009,84.185v126.174c0,11.342,9.195,20.536,20.538,20.536h126.943c11.343,0,20.538-9.194,20.538-20.536v-126.174c0-46.494-37.511-84.185-84.01-84.185ZM1519.864,573.148c-22.374,2.82-41.19-15.995-38.368-38.367,1.922-15.242,14.233-27.55,29.477-29.47,22.372-2.818,41.186,15.994,38.367,38.364-1.921,15.243-14.231,27.552-29.475,29.473Z"/>
                  <path d="M1578.639,691.052h-126.944c-12.601,0-22.854-10.251-22.854-22.851v-126.175c0-47.696,38.725-86.5,86.326-86.5s86.326,38.804,86.326,86.5v126.175c0,12.6-10.253,22.851-22.854,22.851ZM1515.168,460.158c-45.047,0-81.695,36.726-81.695,81.869v126.175c0,10.047,8.175,18.219,18.223,18.219h126.944c10.048,0,18.223-8.172,18.223-18.219v-126.175c0-45.143-36.648-81.869-81.695-81.869ZM1515.428,575.743c-9.693,0-18.912-3.772-25.836-10.696-8.04-8.041-11.828-19.178-10.393-30.555,2.042-16.198,15.283-29.438,31.484-31.48,11.377-1.438,22.517,2.359,30.559,10.4,8.039,8.039,11.828,19.176,10.394,30.553-2.042,16.2-15.282,29.44-31.483,31.48-1.582.199-3.161.298-4.726.298ZM1515.396,507.347c-1.369,0-2.749.086-4.134.26-14.134,1.782-25.686,13.333-27.468,27.464-1.255,9.948,2.052,19.678,9.072,26.702,7.023,7.024,16.758,10.321,26.709,9.077,14.134-1.78,25.686-13.33,27.467-27.464,1.254-9.948-2.053-19.678-9.075-26.699-6.044-6.047-14.099-9.339-22.571-9.339Z"/>
                </g>
              </g>
            </g>
            <g>
              <g>
                <path d="M1519.162,1635.039h-418.87c-16.803,0-30.472-13.67-30.472-30.471v-591.604c0-1.28,1.037-2.316,2.316-2.316s2.315,1.036,2.315,2.316v591.604c0,14.249,11.593,25.84,25.841,25.84h418.87c1.279,0,2.316,1.036,2.316,2.316s-1.037,2.316-2.316,2.316Z"/>
                <path style="fill: #fff;" d="M1835.739,1635.039h-68.294c-1.279,0-2.316-1.036-2.316-2.316s1.037-2.316,2.316-2.316h68.294c1.279,0,2.316,1.036,2.316,2.316s-1.037,2.316-2.316,2.316Z"/>
                <path d="M1967.296,1188.954c-1.278,0-2.314-1.036-2.316-2.313l-.382-322.082c0-14.251-11.593-25.842-25.841-25.842h-206.525c-1.279,0-2.316-1.036-2.316-2.316s1.037-2.316,2.316-2.316h206.525c16.803,0,30.472,13.67,30.472,30.471l.382,322.08c.001,1.278-1.033,2.316-2.313,2.318h-.002Z"/>
                <path d="M1965.496,1106.933h-493.051c-1.279,0-2.316-1.036-2.316-2.316s1.037-2.316,2.316-2.316h493.051c1.279,0,2.316,1.036,2.316,2.316s-1.037,2.316-2.316,2.316Z"/>
                <path d="M1520.731,1239.069h-103.898c-1.279,0-2.316-1.036-2.316-2.316s1.037-2.316,2.316-2.316h103.898c1.279,0,2.316,1.036,2.316,2.316s-1.037,2.316-2.316,2.316Z"/>
                <path d="M1966.633,978.006h-244.117c-1.279,0-2.316-1.036-2.316-2.316s1.037-2.316,2.316-2.316h244.117c1.279,0,2.316,1.036,2.316,2.316s-1.037,2.316-2.316,2.316Z"/>
                <path d="M1456.412,978.006h-225.566c-1.279,0-2.315-1.036-2.315-2.316s1.037-2.316,2.315-2.316h225.566c1.279,0,2.316,1.036,2.316,2.316s-1.037,2.316-2.316,2.316Z"/>
                <path d="M1446.167,839.767h-176.627c-1.279,0-2.316-1.036-2.316-2.316s1.037-2.315,2.316-2.315h176.627c1.279,0,2.316,1.036,2.316,2.315s-1.037,2.316-2.316,2.316Z"/>
                <path d="M1123.861,1239.069h-51.725c-1.279,0-2.316-1.036-2.316-2.316s1.037-2.316,2.316-2.316h51.725c1.279,0,2.316,1.036,2.316,2.316s-1.037,2.316-2.316,2.316Z"/>
                <path d="M1496.17,1371.205h-54.845c-1.279,0-2.316-1.036-2.316-2.316s1.037-2.316,2.316-2.316h54.845c1.279,0,2.316,1.036,2.316,2.316s-1.037,2.316-2.316,2.316Z"/>
                <path d="M1398.194,1371.205h-326.058c-1.279,0-2.316-1.036-2.316-2.316s1.037-2.316,2.316-2.316h326.058c1.279,0,2.316,1.036,2.316,2.316s-1.037,2.316-2.316,2.316Z"/>
                <path style="fill: #fff;" d="M1982.833,1503.34h-64.727c-1.279,0-2.316-1.036-2.316-2.316s1.037-2.316,2.316-2.316h64.727c1.279,0,2.315,1.036,2.315,2.316s-1.037,2.316-2.315,2.316Z"/>
                <path d="M1505.444,1503.34h-433.308c-1.279,0-2.316-1.036-2.316-2.316s1.037-2.316,2.316-2.316h433.308c1.279,0,2.316,1.036,2.316,2.316s-1.037,2.316-2.316,2.316Z"/>
              </g>
              <g>
                <path d="M1501.023,1758.166h-280.573c-12.91,0-23.413-10.502-23.413-23.412s10.503-23.411,23.413-23.411h280.573c12.91,0,23.413,10.502,23.413,23.411s-10.503,23.412-23.413,23.412ZM1220.45,1715.974c-10.356,0-18.781,8.426-18.781,18.78s8.426,18.78,18.781,18.78h280.573c10.356,0,18.781-8.426,18.781-18.78s-8.426-18.78-18.781-18.78h-280.573Z"/>
                <path d="M1514.297,1845.609h-322.087c-12.909,0-23.412-10.502-23.412-23.411s10.503-23.412,23.412-23.412h322.087c12.91,0,23.413,10.502,23.413,23.412s-10.503,23.411-23.413,23.411ZM1192.211,1803.417c-10.356,0-18.78,8.426-18.78,18.78s8.425,18.78,18.78,18.78h322.087c10.356,0,18.781-8.426,18.781-18.78s-8.426-18.78-18.781-18.78h-322.087Z"/>
              </g>
            </g>
          </g>
          <g>
            <g>
              <path d="M2172.048,1204.118h-539.663c-19.485,0-35.28,15.794-35.28,35.276v200.196c0,.651-.018,1.301-.054,1.951l-36.115,651.864c-1.12,20.218,14.975,37.228,35.226,37.228h539.557c18.725,0,34.189-14.628,35.226-33.322l36.328-654.676c.036-.651.054-1.302.054-1.954v-201.286c0-19.483-15.796-35.276-35.28-35.276Z"/>
              <path style="fill: #fff;" d="M2137.018,1207.14h-550.484c-16.497,0-29.87,13.372-29.87,29.867v203.032l-36.142,655.962c-.943,17.115,12.682,31.51,29.825,31.51h550.397c15.857,0,28.95-12.389,29.824-28.22l36.319-657.492v-204.792c0-16.495-13.373-29.867-29.87-29.867Z"/>
              <path d="M2100.744,2129.825h-550.397c-8.934,0-17.236-3.573-23.378-10.063-6.139-6.488-9.25-14.972-8.759-23.889l1.973-35.794c.07-1.278,1.159-2.329,2.44-2.184,1.276.07,2.255,1.162,2.184,2.438l-1.973,35.794c-.421,7.634,2.242,14.898,7.498,20.454,5.258,5.554,12.365,8.613,20.014,8.613h550.397c14.621,0,26.705-11.433,27.512-26.032l36.319-657.49-.003-204.665c0-15.192-12.36-27.552-27.554-27.552h-550.483c-15.194,0-27.554,12.36-27.554,27.552v203.032l-27.044,490.901c-.07,1.278-1.156,2.246-2.44,2.184-1.276-.07-2.254-1.162-2.184-2.438l27.041-490.774-.003-202.906c0-17.747,14.439-32.183,32.185-32.183h550.483c17.747,0,32.185,14.436,32.185,32.183v204.792l-36.323,657.621c-.943,17.05-15.059,30.406-32.137,30.406Z"/>
              <path d="M2133.777,1443.275h-545.011c-1.279,0-2.316-1.036-2.316-2.316s1.037-2.316,2.316-2.316h545.011c1.279,0,2.316,1.036,2.316,2.316s-1.037,2.316-2.316,2.316Z"/>
              <g>
                <path style="fill: #fff;" d="M1642.921,1264.077h437.707c13.02,0,23.59,10.57,23.59,23.59v73.606c0,13.018-10.569,23.587-23.587,23.587h-437.707c-13.02,0-23.59-10.57-23.59-23.59v-73.606c0-13.018,10.569-23.587,23.587-23.587Z"/>
                <path d="M2080.629,1387.176h-437.704c-14.285,0-25.906-11.621-25.906-25.903v-73.608c0-14.282,11.621-25.903,25.906-25.903h437.704c14.284,0,25.905,11.621,25.905,25.903v73.608c0,14.283-11.621,25.903-25.905,25.903ZM1642.924,1266.392c-11.731,0-21.275,9.543-21.275,21.272v73.608c0,11.729,9.544,21.272,21.275,21.272h437.704c11.731,0,21.273-9.543,21.273-21.272v-73.608c0-11.729-9.543-21.272-21.273-21.272h-437.704Z"/>
              </g>
            </g>
            <g>
              <path d="M2052.838,1352.513h-159.76c-8.541,0-15.489-6.947-15.489-15.488v-25.112c0-8.541,6.948-15.488,15.489-15.488h159.76c8.541,0,15.489,6.947,15.489,15.488v25.112c0,8.541-6.948,15.488-15.489,15.488ZM1893.078,1301.056c-5.987,0-10.858,4.871-10.858,10.857v25.112c0,5.986,4.871,10.857,10.858,10.857h159.76c5.987,0,10.858-4.871,10.858-10.857v-25.112c0-5.986-4.871-10.857-10.858-10.857h-159.76Z"/>
              <path d="M1834.046,1352.513h-76.004c-8.541,0-15.489-6.947-15.489-15.488v-25.112c0-8.541,6.948-15.488,15.489-15.488h76.004c8.541,0,15.489,6.947,15.489,15.488v25.112c0,8.541-6.948,15.488-15.489,15.488ZM1758.042,1301.056c-5.987,0-10.858,4.871-10.858,10.857v25.112c0,5.986,4.871,10.857,10.858,10.857h76.004c5.987,0,10.858-4.871,10.858-10.857v-25.112c0-5.986-4.871-10.857-10.858-10.857h-76.004Z"/>
            </g>
            <g>
              <g>
                <path d="M1800.002,1959.469h-77.122c-4.923,0-9.493-1.972-12.869-5.556-3.376-3.58-5.074-8.258-4.783-13.172l4.359-73.59c.552-9.328,8.306-16.634,17.652-16.634h77.122c4.923,0,9.493,1.972,12.869,5.556,3.376,3.58,5.074,8.258,4.783,13.172l-4.359,73.588c-.552,9.328-8.306,16.636-17.652,16.636ZM1727.239,1855.147c-6.898,0-12.622,5.393-13.03,12.279l-4.359,73.59c-.215,3.625,1.039,7.078,3.53,9.721,2.492,2.644,5.866,4.1,9.5,4.1h77.122c6.898,0,12.622-5.393,13.03-12.279v-.002l4.359-73.588c.215-3.625-1.039-7.078-3.53-9.721-2.492-2.643-5.866-4.1-9.5-4.1h-77.122Z"/>
                <path d="M1943.24,1959.469h-77.122c-4.923,0-9.493-1.972-12.869-5.556-3.376-3.58-5.074-8.258-4.783-13.172l4.359-73.59c.552-9.328,8.306-16.634,17.652-16.634h77.122c4.923,0,9.493,1.972,12.869,5.556,3.376,3.58,5.074,8.258,4.783,13.172l-4.359,73.588c-.553,9.328-8.307,16.636-17.652,16.636ZM1870.476,1855.147c-6.898,0-12.622,5.393-13.03,12.279l-4.359,73.59c-.215,3.625,1.039,7.078,3.53,9.721,2.492,2.644,5.866,4.1,9.5,4.1h77.122c6.898,0,12.62-5.393,13.03-12.281l4.359-73.588c.215-3.625-1.039-7.078-3.53-9.721-2.492-2.643-5.866-4.1-9.5-4.1h-77.122ZM1958.581,1942.694h.023-.023Z"/>
                <path d="M1792.499,2095.887h-77.125c-4.918,0-9.486-1.97-12.862-5.547-3.375-3.577-5.077-8.249-4.792-13.159l4.393-75.596c.544-9.342,8.298-16.657,17.654-16.657h77.125c4.919,0,9.487,1.97,12.862,5.547,3.375,3.577,5.077,8.252,4.792,13.161l-4.393,75.594c-.544,9.341-8.298,16.657-17.654,16.657ZM1719.767,1989.56c-6.906,0-12.63,5.4-13.03,12.292l-4.393,75.596c-.211,3.625,1.045,7.073,3.535,9.712,2.492,2.641,5.864,4.095,9.494,4.095h77.125c6.906,0,12.629-5.4,13.03-12.293l4.393-75.594c.211-3.625-1.045-7.076-3.536-9.715-2.491-2.641-5.864-4.095-9.494-4.095h-77.125ZM1807.841,2079.097h.023-.023Z"/>
                <path d="M1935.737,2095.887h-77.125c-4.919,0-9.487-1.97-12.863-5.549-3.375-3.575-5.075-8.249-4.791-13.156l4.393-75.596c.544-9.342,8.298-16.657,17.654-16.657h77.125c4.919,0,9.487,1.97,12.862,5.547,3.375,3.577,5.077,8.252,4.792,13.161l-4.394,75.594c-.543,9.341-8.297,16.657-17.653,16.657ZM1863.005,1989.56c-6.906,0-12.629,5.4-13.03,12.292l-4.393,75.596c-.211,3.625,1.045,7.073,3.534,9.712,2.492,2.641,5.864,4.095,9.495,4.095h77.125c6.906,0,12.629-5.4,13.029-12.293l4.394-75.594c.211-3.625-1.045-7.076-3.536-9.715-2.491-2.641-5.864-4.095-9.494-4.095h-77.125Z"/>
                <path d="M1664.252,1823.048h-77.122c-4.923,0-9.493-1.972-12.869-5.556-3.376-3.58-5.074-8.258-4.783-13.172l4.359-73.59c.552-9.328,8.306-16.634,17.652-16.634h77.122c4.923,0,9.493,1.972,12.869,5.556,3.376,3.58,5.074,8.258,4.783,13.172l-4.359,73.59c-.552,9.328-8.306,16.634-17.652,16.634ZM1591.488,1718.726c-6.898,0-12.621,5.393-13.03,12.279l-4.359,73.59c-.215,3.625,1.039,7.078,3.53,9.721,2.492,2.644,5.866,4.1,9.5,4.1h77.122c6.898,0,12.622-5.393,13.03-12.279l4.359-73.59c.215-3.625-1.039-7.078-3.53-9.721-2.492-2.644-5.866-4.1-9.5-4.1h-77.122Z"/>
                <path d="M1807.489,1823.048h-77.122c-4.923,0-9.493-1.972-12.869-5.556-3.376-3.58-5.074-8.258-4.783-13.172l4.359-73.59c.552-9.328,8.306-16.634,17.652-16.634h77.122c4.923,0,9.493,1.972,12.869,5.556,3.376,3.58,5.074,8.258,4.783,13.172l-4.359,73.59c-.552,9.328-8.306,16.634-17.652,16.634ZM1734.726,1718.726c-6.898,0-12.622,5.393-13.03,12.279l-4.359,73.59c-.215,3.625,1.039,7.078,3.53,9.721,2.492,2.644,5.866,4.1,9.5,4.1h77.122c6.898,0,12.622-5.393,13.03-12.279l4.359-73.59c.215-3.625-1.039-7.078-3.53-9.721-2.492-2.644-5.866-4.1-9.5-4.1h-77.122Z"/>
                <path d="M1950.727,1823.048h-77.122c-4.923,0-9.493-1.972-12.869-5.556-3.376-3.58-5.074-8.258-4.783-13.172l4.359-73.59c.552-9.328,8.306-16.634,17.652-16.634h77.122c4.923,0,9.493,1.972,12.869,5.556,3.376,3.58,5.074,8.258,4.783,13.172l-4.359,73.59c-.553,9.328-8.307,16.634-17.652,16.634ZM1877.963,1718.726c-6.898,0-12.622,5.393-13.03,12.279l-4.359,73.59c-.215,3.625,1.039,7.078,3.53,9.721,2.492,2.644,5.866,4.1,9.5,4.1h77.122c6.898,0,12.621-5.393,13.03-12.279l4.359-73.59c.215-3.625-1.039-7.078-3.53-9.721-2.492-2.644-5.866-4.1-9.5-4.1h-77.122ZM1966.068,1806.276h.023-.023Z"/>
                <path d="M2093.965,1823.048h-77.122c-4.923,0-9.493-1.972-12.869-5.556-3.376-3.58-5.074-8.258-4.783-13.172l4.359-73.59c.552-9.328,8.306-16.634,17.652-16.634h77.122c4.923,0,9.493,1.972,12.869,5.556,3.376,3.58,5.074,8.258,4.783,13.172l-4.359,73.59c-.553,9.328-8.307,16.634-17.652,16.634ZM2021.201,1718.726c-6.898,0-12.622,5.393-13.03,12.279l-4.359,73.59c-.215,3.625,1.039,7.078,3.53,9.721,2.492,2.644,5.866,4.1,9.5,4.1h77.122c6.898,0,12.62-5.393,13.03-12.279l4.359-73.59c.215-3.625-1.039-7.078-3.53-9.721-2.492-2.644-5.866-4.1-9.5-4.1h-77.122ZM2109.305,1806.276h.023-.023Z"/>
                <path d="M1671.768,1686.627h-77.122c-4.922,0-9.492-1.972-12.868-5.554-3.376-3.582-5.075-8.261-4.784-13.172l4.359-73.59c.553-9.328,8.307-16.637,17.652-16.637h77.123c4.922,0,9.492,1.972,12.868,5.554,3.376,3.582,5.076,8.261,4.784,13.172l-4.36,73.592c-.552,9.328-8.306,16.634-17.652,16.634ZM1599.005,1582.306c-6.898,0-12.62,5.393-13.03,12.281l-4.359,73.588c-.214,3.625,1.04,7.078,3.532,9.721s5.865,4.1,9.498,4.1h77.122c6.898,0,12.622-5.393,13.03-12.279l4.36-73.59c.214-3.625-1.04-7.078-3.532-9.721s-5.865-4.1-9.498-4.1h-77.123Z"/>
                <path d="M1815.006,1686.627h-77.122c-4.922,0-9.492-1.972-12.868-5.554-3.376-3.582-5.075-8.261-4.784-13.172l4.359-73.59c.553-9.328,8.307-16.637,17.652-16.637h77.123c4.922,0,9.492,1.972,12.868,5.554,3.376,3.582,5.076,8.261,4.784,13.172l-4.36,73.592c-.552,9.328-8.306,16.634-17.652,16.634ZM1742.243,1582.306c-6.898,0-12.621,5.393-13.03,12.281l-4.359,73.588c-.214,3.625,1.04,7.078,3.532,9.721,2.492,2.643,5.865,4.1,9.498,4.1h77.122c6.898,0,12.621-5.393,13.03-12.279l4.36-73.59c.214-3.625-1.04-7.078-3.532-9.721s-5.865-4.1-9.497-4.1h-77.123Z"/>
                <path d="M1958.244,1686.627h-77.122c-4.922,0-9.492-1.972-12.868-5.554-3.376-3.582-5.075-8.261-4.784-13.172l4.359-73.59c.553-9.328,8.307-16.637,17.652-16.637h77.123c4.922,0,9.492,1.972,12.868,5.554,3.376,3.582,5.076,8.261,4.784,13.172l-4.36,73.592c-.552,9.328-8.306,16.634-17.652,16.634ZM1885.48,1582.306c-6.898,0-12.621,5.393-13.03,12.281l-4.359,73.588c-.214,3.625,1.04,7.078,3.532,9.721,2.492,2.643,5.865,4.1,9.498,4.1h77.122c6.898,0,12.622-5.393,13.03-12.279l4.36-73.59c.214-3.625-1.04-7.078-3.532-9.721-2.492-2.644-5.865-4.1-9.497-4.1h-77.123Z"/>
                <path d="M2101.481,1686.627h-77.122c-4.922,0-9.492-1.972-12.868-5.554-3.376-3.582-5.076-8.261-4.784-13.172l4.359-73.59c.552-9.328,8.306-16.637,17.652-16.637h77.123c4.922,0,9.492,1.972,12.868,5.554,3.376,3.582,5.074,8.261,4.783,13.174l-4.359,73.59c-.552,9.328-8.306,16.634-17.652,16.634ZM2028.718,1582.306c-6.898,0-12.622,5.393-13.03,12.279l-4.359,73.59c-.214,3.625,1.04,7.078,3.532,9.721,2.491,2.643,5.865,4.1,9.498,4.1h77.122c6.898,0,12.622-5.393,13.03-12.279l4.359-73.59c.215-3.625-1.039-7.078-3.53-9.721-2.492-2.644-5.866-4.1-9.499-4.1h-77.123Z"/>
                <path d="M1656.765,1959.469h-77.122c-4.923,0-9.493-1.972-12.869-5.556-3.376-3.58-5.074-8.258-4.783-13.172l4.359-73.59c.552-9.328,8.306-16.634,17.652-16.634h77.122c4.923,0,9.493,1.972,12.869,5.556,3.376,3.58,5.074,8.258,4.783,13.172l-4.359,73.588c-.552,9.33-8.306,16.636-17.652,16.636ZM1584.001,1855.147c-6.898,0-12.622,5.393-13.03,12.279l-4.359,73.59c-.215,3.625,1.039,7.078,3.53,9.721,2.492,2.644,5.866,4.1,9.5,4.1h77.122c6.898,0,12.621-5.393,13.03-12.279v-.002l4.359-73.588c.215-3.625-1.039-7.078-3.53-9.721-2.492-2.643-5.866-4.1-9.5-4.1h-77.122Z"/>
                <path d="M1649.262,2095.887h-77.125c-4.918,0-9.486-1.97-12.862-5.547-3.375-3.577-5.077-8.249-4.792-13.159l4.394-75.596c.543-9.342,8.297-16.657,17.653-16.657h77.126c4.918,0,9.486,1.97,12.861,5.547s5.077,8.252,4.792,13.161l-4.393,75.594c-.544,9.341-8.298,16.657-17.654,16.657ZM1576.53,1989.56c-6.906,0-12.63,5.4-13.029,12.292l-4.394,75.596c-.211,3.625,1.045,7.073,3.536,9.712,2.492,2.641,5.864,4.095,9.494,4.095h77.125c6.906,0,12.629-5.4,13.03-12.293l4.393-75.594c.211-3.625-1.045-7.076-3.536-9.715-2.491-2.641-5.862-4.095-9.493-4.095h-77.126ZM1664.604,2079.097h.023-.023Z"/>
                <path d="M2078.952,2095.65h-77.127c-4.914,0-9.478-1.967-12.853-5.538-3.374-3.571-5.079-8.238-4.802-13.143l11.926-210.703c.53-9.355,8.285-16.682,17.655-16.682h77.128c4.914,0,9.478,1.967,12.853,5.538,3.374,3.571,5.079,8.238,4.802,13.143l-11.927,210.703c-.529,9.355-8.284,16.682-17.655,16.682ZM2013.751,1854.216c-6.916,0-12.64,5.409-13.031,12.313l-11.926,210.703c-.205,3.62,1.054,7.064,3.544,9.701,2.491,2.634,5.86,4.086,9.487,4.086h77.127c6.916,0,12.641-5.409,13.031-12.313l11.927-210.703c.205-3.62-1.054-7.064-3.543-9.701-2.491-2.634-5.86-4.086-9.487-4.086h-77.128Z"/>
              </g>
              <g>
                <path d="M1685.665,1526.134h-86.449c-3.631,0-7-1.456-9.487-4.1-2.487-2.646-3.736-6.096-3.515-9.717l1.626-26.729c.418-6.861,6.13-12.236,13.004-12.236h86.449c3.629,0,6.999,1.456,9.486,4.1,2.487,2.644,3.737,6.094,3.516,9.717l-1.627,26.729c-.417,6.861-6.128,12.236-13.003,12.236ZM1592.462,1485.869l-1.626,26.729c-.142,2.334.663,4.559,2.266,6.262,1.603,1.705,3.775,2.643,6.115,2.643h86.449c4.43,0,8.111-3.464,8.38-7.885l1.627-26.729c.141-2.334-.664-4.559-2.267-6.264-1.603-1.703-3.774-2.641-6.114-2.641h-86.449c-4.43,0-8.111,3.464-8.382,7.885Z"/>
                <path d="M1828.903,1526.134h-86.449c-3.629,0-6.999-1.456-9.486-4.1-2.488-2.643-3.737-6.094-3.516-9.717l1.626-26.729,2.311.14-2.311-.14c.417-6.861,6.128-12.236,13.003-12.236h86.449c3.63,0,7,1.456,9.487,4.1,2.488,2.644,3.737,6.094,3.515,9.717l-1.626,26.729c-.417,6.861-6.128,12.236-13.003,12.236ZM1744.08,1477.984c-4.43,0-8.111,3.464-8.38,7.885l-1.626,26.729c-.141,2.336.664,4.559,2.267,6.264,1.603,1.703,3.774,2.641,6.113,2.641h86.449c4.43,0,8.111-3.464,8.38-7.885l1.626-26.729c.143-2.334-.662-4.559-2.266-6.262-1.603-1.705-3.775-2.644-6.115-2.644h-86.449Z"/>
                <path d="M1972.141,1526.134h-86.449c-3.631,0-7-1.456-9.487-4.1-2.487-2.643-3.737-6.094-3.515-9.717l1.626-26.729,2.311.14-2.311-.14c.417-6.861,6.128-12.236,13.003-12.236h86.45c3.629,0,6.999,1.456,9.486,4.1,2.487,2.644,3.737,6.094,3.516,9.717l-1.627,26.729c-.417,6.861-6.128,12.236-13.003,12.236ZM1887.317,1477.984c-4.43,0-8.111,3.464-8.38,7.885l-1.626,26.729c-.142,2.334.663,4.559,2.266,6.262,1.603,1.705,3.775,2.643,6.115,2.643h86.449c4.43,0,8.111-3.464,8.38-7.885l1.627-26.729c.141-2.334-.664-4.559-2.267-6.264-1.603-1.703-3.774-2.641-6.114-2.641h-86.45Z"/>
                <path d="M2019.863,1485.57l-1.625,26.683c-.375,6.16,4.52,11.361,10.692,11.361h86.449c5.663,0,10.347-4.407,10.692-10.059l1.625-26.683c.375-6.16-4.52-11.361-10.692-11.361h-86.449c-5.663,0-10.347,4.408-10.692,10.059Z"/>
              </g>
            </g>
          </g>
        </g>
        <g>
          <g>
            <path style="fill: #fff;" d="M1412.829,877.089c1.895,67.061,56.4,121.123,121.741,120.75s116.773-55.039,114.877-122.1c-1.895-67.061-56.4-121.123-121.741-120.75-65.34.373-116.773,55.039-114.878,122.1Z"/>
            <path d="M1533.9,1000.156c-66.182,0-121.466-55.034-123.386-123.002-.952-33.669,11.109-65.23,33.96-88.87,22.022-22.783,51.576-35.43,83.218-35.609.228-.002.457-.002.684-.002,29.822,0,58.671,11.234,81.308,31.677.949.857,1.023,2.322.166,3.27-.856.95-2.321,1.024-3.271.167-21.781-19.671-49.533-30.483-78.203-30.483-.221,0-.437,0-.657.002-30.385.172-58.766,12.317-79.915,34.196-21.979,22.738-33.577,53.109-32.661,85.521,1.851,65.481,55.06,118.502,118.756,118.502.219,0,.438,0,.656-.002,30.384-.172,58.765-12.317,79.914-34.196,21.979-22.738,33.578-53.109,32.662-85.521-.401-14.176-3.193-28.034-8.299-41.185-.464-1.194.128-2.535,1.321-2.998,1.193-.459,2.534.131,2.996,1.321,5.298,13.647,8.196,28.025,8.611,42.732.952,33.669-11.11,65.23-33.962,88.872-22.022,22.781-51.576,35.428-83.217,35.607-.227.002-.456.002-.683.002Z"/>
            <path d="M1519.779,948.427l.476-16.846c-11.561-.598-22.701-3.854-29.157-7.793l5.769-20.718c7.141,4.12,17.231,7.902,28.461,7.966,9.848.056,16.697-3.807,16.898-10.9.191-6.738-5.219-11.026-17.878-15.532-18.307-6.489-30.669-15.428-30.183-32.628.441-15.605,11.499-27.779,30.092-31.398l.476-16.846,16.932.097-.441,15.605c11.561.598,19.266,3.125,24.888,5.995l-5.577,20.009c-4.437-1.976-12.27-6.1-24.71-6.171-11.23-.064-14.999,4.88-15.139,9.846-.165,5.852,5.776,9.61,20.303,15.368,20.35,7.565,28.367,17.365,27.916,33.325-.446,15.782-11.711,29.197-31.681,32.63l-.511,18.087-16.933-.097Z"/>
          </g>
          <g>
            <path style="fill: #fff;" d="M1093.511,1201.449c23.751,62.69,92.919,95.675,154.49,73.674,61.572-22.001,92.231-90.657,68.48-153.348-23.751-62.69-92.919-95.675-154.49-73.674s-92.231,90.657-68.48,153.348Z"/>
            <path d="M1208.801,1283.814c-45.541.005-90.076-25.564-112.359-69.3-15.247-29.926-17.888-63.588-7.439-94.783,10.104-30.159,31.377-54.416,59.901-68.305,27.06-13.174,58.161-15.63,87.565-6.922,1.226.364,1.926,1.653,1.563,2.879-.364,1.226-1.66,1.929-2.879,1.563-28.294-8.385-58.206-6.026-84.22,6.646-27.399,13.34-47.833,36.64-57.538,65.612-10.052,30.005-7.504,62.399,7.174,91.208,29.801,58.494,100.898,83.262,158.49,55.224,27.399-13.34,47.833-36.64,57.538-65.612,10.053-30.008,7.504-62.399-7.174-91.208-6.427-12.618-14.877-23.914-25.118-33.574-.931-.877-.974-2.343-.096-3.274.878-.927,2.345-.972,3.273-.095,10.628,10.027,19.399,21.749,26.067,34.84,15.247,29.926,17.889,63.588,7.439,94.781-10.104,30.162-31.377,54.419-59.901,68.308-16.745,8.152-34.596,12.012-52.286,12.014Z"/>
            <path d="M1172.159,1226.589l5.966-15.748c-10.72-4.395-20.172-11.16-24.977-17.018l12.232-17.65c5.394,6.256,13.681,13.17,24.264,16.951,9.28,3.316,17.012,1.938,19.524-4.693,2.387-6.299-1.317-12.139-11.794-20.589-15.16-12.193-23.905-24.728-17.813-40.808,5.527-14.588,19.955-22.419,38.695-19.675l5.966-15.748,15.955,5.701-5.527,14.588c10.72,4.395,17.168,9.334,21.536,13.906l-11.818,17.045c-3.542-3.336-9.588-9.825-21.31-14.014-10.582-3.781-15.76-.362-17.519,4.28-2.073,5.47,2.307,10.988,14.136,21.238,16.737,13.885,21.097,25.795,15.445,40.714-5.59,14.753-20.619,23.687-40.599,20.312l-6.406,16.909-15.956-5.702Z"/>
          </g>
          <g>
            <g>
              <path style="fill: #fff;" d="M944.556,753.113c-34.114,57.649-16.879,132.668,38.494,167.56s127.917,16.443,162.03-41.206c34.114-57.649,16.88-132.668-38.494-167.56-55.373-34.892-127.917-16.443-162.03,41.206Z"/>
              <path d="M1043.705,940.658c-21.689,0-42.994-6.119-61.89-18.027-56.335-35.498-73.944-112.073-39.253-170.696,17.092-28.884,44.023-49.025,75.832-56.712,30.791-7.44,62.549-2.212,89.427,14.726,25.474,16.051,44.069,41.235,52.357,70.915.345,1.23-.375,2.508-1.607,2.851-1.234.348-2.51-.375-2.854-1.608-7.979-28.569-25.866-52.804-50.366-68.242-25.809-16.263-56.306-21.281-85.87-14.14-30.583,7.39-56.484,26.769-72.933,54.566-33.427,56.488-16.499,130.248,37.736,164.423,25.81,16.261,56.307,21.284,85.869,14.14,30.582-7.39,56.484-26.77,72.933-54.566,7.211-12.186,12.233-25.39,14.926-39.247.243-1.257,1.456-2.074,2.715-1.832,1.255.244,2.075,1.459,1.831,2.714-2.794,14.38-8.004,28.081-15.484,40.722-17.092,28.884-44.023,49.025-75.832,56.712-9.144,2.209-18.376,3.302-27.536,3.302Z"/>
              <path d="M1072.472,882.004l-8.57-14.482c-10.081,5.725-21.222,8.977-28.77,9.13l-6.162-20.603c8.224-.369,18.758-2.612,28.275-8.608,8.346-5.259,12.072-12.211,8.464-18.309-3.428-5.793-10.279-6.498-23.369-3.482-18.915,4.384-34.114,3.498-42.864-11.289-7.938-13.415-5.084-29.653,8.689-42.727l-8.569-14.482,14.349-9.041,7.938,13.415c10.081-5.724,17.933-7.742,24.208-8.348l5.947,19.901c-4.799.722-13.61,1.46-24.152,8.103-9.517,5.997-10.066,12.203-7.541,16.471,2.977,5.03,9.996,5.002,25.329,2.038,21.213-4.577,33.202-.621,41.32,13.098,8.028,13.567,5.66,30.965-9.375,44.624l9.201,15.549-14.35,9.042Z"/>
            </g>
            <g>
              <g>
                <g>
                  <g>
                    <path style="fill: #fff;" d="M370.428,2119.359l66.309-5.44-2.569-7.15c-6.046-16.828-8.723-34.69-7.876-52.561l.522-11.009-47.43,8.796-8.955,67.364Z"/>
                    <path d="M370.428,2121.673c-.632,0-1.239-.258-1.678-.719-.483-.509-.71-1.207-.617-1.902l8.955-67.362c.132-.993.888-1.789,1.873-1.972l47.43-8.797c.692-.127,1.411.068,1.944.531.534.466.824,1.149.791,1.857l-.522,11.008c-.837,17.656,1.768,35.041,7.743,51.669l2.569,7.15c.244.678.158,1.429-.232,2.035-.39.606-1.04.997-1.758,1.056l-66.309,5.438c-.063.005-.126.007-.189.007ZM381.456,2053.965l-8.354,62.851,60.434-4.957-1.547-4.308c-6.182-17.202-8.877-35.186-8.012-53.453l.384-8.089-42.905,7.955Z"/>
                  </g>
                  <g>
                    <g>
                      <path style="fill: #fff;" d="M443.443,2080.481c4.089,3.389,8.423,7.296,11.868,11.051,11.599,12.641,42.008,25.481,47.982,26.984,4.489,1.129,9.821,2.938,14.165,5.763,4.897,3.184,7.646,8.832,7.49,14.692l-.076,2.856c-.094,3.535-1.903,6.807-4.877,8.697-6.189,3.932-18.878,9.829-40.618,11.158-33.292,2.035-64.363-.467-85.513.129-21.149.596-34.216-1.577-40.567-9.223-5.74-6.91,1.17-46.414,8.836-58.34,1.208-1.88,3.475-2.76,5.655-2.305,4.079.852,11.308,3.099,17.122,8.865,5.5,5.454,17.603,9.201,28.316,9.644,8.336.345,15.316-6.336,15.5-14.719.061-2.772.153-5.794.29-8.802.335-7.32,8.801-11.11,14.426-6.448Z"/>
                      <path d="M450.26,2164.81c-9.865,0-19.293-.224-28.119-.434-10.811-.26-20.149-.486-28.21-.251-23.635.658-35.927-2.248-42.414-10.061-6.855-8.249,1.154-49.381,8.67-61.072,1.696-2.639,4.941-3.975,8.075-3.317,4.122.862,11.978,3.238,18.28,9.486,4.796,4.758,16.059,8.532,26.781,8.975,3.356.147,6.574-1.067,9.051-3.39,2.528-2.374,3.962-5.595,4.039-9.066.061-2.79.153-5.832.292-8.86.196-4.285,2.74-8.019,6.639-9.744,3.872-1.707,8.307-1.092,11.577,1.621,3.351,2.777,8.171,6.987,12.097,11.268,11.014,12.001,40.52,24.712,46.841,26.304,5.985,1.504,10.985,3.546,14.861,6.067,5.45,3.541,8.723,9.938,8.543,16.693l-.076,2.856c-.115,4.337-2.338,8.294-5.948,10.59-7.121,4.525-20.139,10.194-41.719,11.515-10.054.615-19.854.818-29.259.818ZM401.278,2159.401c6.439,0,13.56.17,20.974.346,17.148.407,36.582.871,56.985-.378,21.68-1.325,34.065-7.336,39.518-10.8,2.306-1.468,3.729-4.012,3.803-6.804l.076-2.856c.137-5.156-2.33-10.018-6.438-12.691-3.4-2.209-8.056-4.095-13.467-5.457-5.895-1.483-36.952-14.4-49.124-27.665-2.968-3.236-6.993-6.981-11.64-10.834-1.937-1.606-4.459-1.961-6.748-.95-2.317,1.024-3.77,3.164-3.886,5.721-.137,2.992-.228,5.993-.288,8.749-.104,4.724-2.057,9.109-5.498,12.34-3.39,3.182-7.794,4.875-12.412,4.64-11.951-.495-24.227-4.735-29.85-10.314-5.457-5.409-12.346-7.485-15.966-8.243-1.264-.258-2.565.253-3.233,1.291-7.427,11.553-13.654,50.011-9.004,55.608,5.393,6.495,16.966,9.011,38.721,8.387,2.363-.066,4.864-.093,7.478-.093Z"/>
                    </g>
                    <path d="M418.358,2150.616c-30.078,0-55.05-2.103-57.087-2.279-1.273-.111-2.217-1.232-2.106-2.505.11-1.275,1.193-2.227,2.507-2.108.992.086,99.69,8.389,143.373-7.998,1.199-.443,2.532.158,2.981,1.354.449,1.199-.158,2.533-1.356,2.983-22.43,8.414-57.97,10.553-88.313,10.553Z"/>
                  </g>
                </g>
                <g>
                  <g>
                    <path style="fill: #fff;" d="M556.965,2122.64l63.205-10.645-3.044-6.652c-7.164-15.657-11.178-32.584-11.81-49.806l-.389-22.168-44.814,3.076-3.148,86.195Z"/>
                    <path d="M556.965,2124.954c-.557,0-1.101-.201-1.528-.574-.524-.459-.812-1.131-.787-1.825l3.148-86.195c.044-1.185.974-2.146,2.156-2.227l44.814-3.075c.629-.032,1.256.176,1.724.604.467.43.738,1.031.75,1.667l.389,22.168c.624,16.964,4.527,33.425,11.601,48.883l3.044,6.653c.3.656.278,1.411-.06,2.049-.337.635-.951,1.079-1.661,1.199l-63.205,10.644c-.128.02-.257.032-.384.032ZM562.351,2038.61l-2.968,81.274,57.426-9.672-1.788-3.908c-7.328-16.012-11.372-33.065-12.02-50.683l-.347-19.778-40.303,2.766Z"/>
                  </g>
                  <g>
                    <g>
                      <path style="fill: #fff;" d="M627.185,2077.843c4.273,3.345,8.811,7.212,12.438,10.95,12.208,12.582,43.638,24.829,49.784,26.193,4.618,1.025,10.116,2.721,14.635,5.482,5.093,3.113,8.061,8.804,8.068,14.795l.003,2.92c.004,3.614-1.751,7.009-4.736,9.025-6.211,4.194-19.008,10.582-41.179,12.562-33.954,3.033-65.768,1.365-87.358,2.58s-35-.631-41.706-8.261c-6.06-6.895-.12-47.45,7.374-59.854,1.181-1.955,3.472-2.919,5.712-2.516,4.192.753,11.64,2.842,17.743,8.566,5.773,5.414,18.244,8.896,29.201,9.041,8.526.113,15.468-6.911,15.418-15.481-.016-2.834-.008-5.923.047-9,.135-7.487,8.677-11.602,14.555-7Z"/>
                      <path d="M567.86,2165c-17.045,0-26.765-2.899-32.465-9.385-7.227-8.222-.208-50.432,7.131-62.58,1.647-2.725,4.91-4.163,8.103-3.598,4.23.76,12.311,2.96,18.918,9.156,5.045,4.731,16.672,8.27,27.647,8.414,3.449.045,6.714-1.282,9.188-3.736,2.526-2.508,3.905-5.852,3.885-9.416-.017-2.851-.009-5.958.046-9.054.079-4.364,2.561-8.233,6.478-10.099,3.891-1.848,8.418-1.348,11.82,1.318,3.496,2.734,8.532,6.892,12.672,11.16,11.596,11.951,42.118,24.099,48.625,25.544,6.15,1.366,11.311,3.306,15.34,5.766,5.652,3.458,9.169,9.882,9.176,16.77l.003,2.919c.006,4.414-2.146,8.507-5.755,10.945-7.146,4.823-20.278,10.986-42.27,12.951-21.011,1.877-40.986,1.961-58.611,2.033-11.049.048-20.591.088-28.823.549-4.012.226-7.708.342-11.11.342ZM549.216,2093.943c-1.115,0-2.163.556-2.725,1.488-7.266,12.026-12.533,51.533-7.617,57.128,5.706,6.492,17.62,8.731,39.836,7.478,8.352-.47,18.413-.513,29.064-.559,17.532-.072,37.403-.156,58.219-2.015,22.116-1.976,34.61-8.475,40.089-12.175,2.33-1.574,3.72-4.229,3.716-7.103l-.003-2.919c-.006-5.287-2.673-10.201-6.96-12.822-3.54-2.164-8.357-3.962-13.929-5.197-6.061-1.348-38.144-13.649-50.945-26.842-3.958-4.079-8.82-8.091-12.202-10.739-2.041-1.594-4.647-1.888-6.975-.783-2.356,1.122-3.79,3.365-3.837,5.999-.055,3.06-.063,6.13-.046,8.946.028,4.819-1.837,9.339-5.253,12.729-3.365,3.34-7.825,5.117-12.512,5.081-12.21-.161-24.856-4.136-30.754-9.667-5.737-5.38-12.843-7.306-16.569-7.976-.199-.036-.398-.054-.596-.054Z"/>
                    </g>
                    <path d="M608.742,2148.906c-34.641,0-62.947-2.928-63.466-2.985-1.272-.133-2.194-1.275-2.059-2.546.135-1.273,1.27-2.193,2.547-2.058.947.1,95.338,9.857,149.819-6.551,1.226-.373,2.517.323,2.886,1.549.369,1.223-.325,2.515-1.549,2.883-25.321,7.628-58.998,9.708-88.178,9.708Z"/>
                  </g>
                </g>
                <g>
                  <path d="M532.557,1769.243c1.87,65.848,13.084,246.954,15.042,281.514.169,2.983,2.625,5.3,5.598,5.3h56.236c2.881,0,5.292-2.188,5.58-5.069,3.577-35.84,39.178-274.209,35.848-371.271-3.637-106.001-11.849-232.105-20.941-266.83-9.092-34.724-20.364-116.91-20.364-116.91l-225.724,34.118s-28.507,238.138-32.144,285.656c-3.637,47.518-10.746,201.23-1.654,283.472,5.891,53.282,10.315,129.961,12.461,148.453.995,8.576,8.222,15.037,16.812,15.037h60.068c3.071,0,5.569-2.471,5.608-5.557.274-22.183,3.552-135.137,17.634-207.472,16.367-84.07,50.714-291.552,52.86-310.638,0,0,14.288,131.864,17.081,230.197Z"/>
                  <path style="fill: #fff;" d="M515.479,1541.362c-.087,0-.174-.005-.262-.014-1.271-.145-2.185-1.289-2.042-2.56,1.521-13.53,2.7-25.806,3.557-34.989,1.651-17.695,10.757-33.922,24.985-44.516,1.024-.764,2.476-.554,3.241.473.763,1.027.551,2.478-.475,3.24-13.177,9.814-21.611,24.843-23.14,41.233-.859,9.203-2.041,21.507-3.566,35.075-.132,1.183-1.135,2.058-2.297,2.058Z"/>
                  <path style="fill: #fff;" d="M383.308,1434.759c-1.254,0-2.284-1.002-2.313-2.261-.03-1.278.981-2.34,2.26-2.37,28.256-.66,41.387-28.818,45.72-40.896.432-1.203,1.756-1.832,2.962-1.397,1.203.432,1.829,1.759,1.398,2.962-4.657,12.975-18.848,43.234-49.972,43.962h-.055Z"/>
                  <path style="fill: #fff;" d="M622.681,1430.193c-.088,0-.176-.005-.266-.016-35.041-3.996-34.04-44.467-34.026-44.876.045-1.278,1.142-2.187,2.392-2.232,1.278.043,2.278,1.115,2.236,2.392-.05,1.493-.85,36.604,29.922,40.116,1.271.145,2.183,1.291,2.039,2.562-.135,1.183-1.136,2.053-2.297,2.053Z"/>
                </g>
              </g>
              <g>
                <g>
                  <g>
                    <path style="fill: #fff;" d="M470.793,886.817l5.059-103.054,74.025,38.808-1.533,65.152c-.704,14.519-13.07,22.487-13.07,22.487-15.337,11.069-36.629,8.792-52.016-2.206l-3.564-2.547c-5.961-4.26-9.323-11.302-8.9-18.641Z"/>
                    <path d="M511.931,919.847c-10.175,0-20.756-3.338-30.02-9.959l-3.564-2.546c-6.646-4.751-10.334-12.469-9.866-20.65l5.059-103.042c.04-.789.478-1.504,1.163-1.897.688-.391,1.526-.405,2.225-.041l74.025,38.806c.78.409,1.261,1.226,1.239,2.105l-1.534,65.153c-.755,15.59-13.585,24.026-14.131,24.379-7.12,5.14-15.703,7.691-24.596,7.691ZM477.988,787.497l-4.881,99.432c-.001.007-.001.014-.001.02-.38,6.587,2.587,12.804,7.935,16.625l3.564,2.546c15.495,11.071,35.774,11.981,49.314,2.212.212-.14,11.477-7.616,12.113-20.723l1.499-63.656-69.542-36.457ZM470.793,886.816h.023-.023Z"/>
                  </g>
                  <g>
                    <path style="fill: #fff;" d="M585.375,666.89c-19.858-1.371,4.898,19.347-68.353-2.923-29.17-8.868-14.743,25.437-22.316,23.156-27.968-8.422-27.007-8.165-40.742-4.723-9.095,2.279-15.183,18.921-13.615,31.423,2.07,16.503,15.629,20.914,27.293,55.867,8.191,24.547,5.952,39.381,15.717,43.059,9.875,3.719,17.344-9.496,28.435-6.249,14.354,4.202,11.234,29.083,25.138,39.577,8.764,6.615,29.295,9.871,62.43-5.785,5.37-2.537,8.181-8.57,6.665-14.335-1.943-7.387-4.447-16.707-7.583-25.41-14.947-41.478-29.555-50.985-24.106-61.623,8.349-16.301,39.276-6.55,44.563-19.958,5.491-13.926-6.34-50.199-33.528-52.076Z"/>
                    <path d="M557.437,853.896c-12.428,0-19.271-3.989-21.899-5.972-7.133-5.382-10.11-14.156-12.738-21.896-2.809-8.277-5.234-15.425-11.655-17.304-4.663-1.368-8.706.828-12.989,3.15-4.551,2.469-9.71,5.262-15.612,3.041-7.34-2.766-8.882-10.235-11.217-21.541-1.287-6.23-2.888-13.984-5.881-22.952-6.138-18.394-12.724-28.063-18.016-35.831-4.663-6.845-8.345-12.252-9.377-20.481-1.659-13.222,4.818-31.317,15.349-33.956l1.246-.314c12.982-3.263,13.531-3.125,40.149,4.891.213-1.076.243-3.164.266-4.769.084-5.712.198-13.536,5.613-17.489,3.836-2.802,9.404-3.037,17.021-.721,48.382,14.71,52.769,10.187,55.966,6.881,2.506-2.587,4.97-4.516,11.872-4.055,11.326.782,21.461,7.388,28.541,18.602,7.519,11.91,10.521,27.66,6.982,36.636-3.025,7.67-12.529,8.941-21.721,10.171-9.404,1.257-19.127,2.558-22.935,9.993-2.322,4.534-.053,9.018,5.766,19.624,4.899,8.925,11.607,21.15,18.457,40.159,3.11,8.634,5.576,17.745,7.644,25.607,1.8,6.841-1.53,13.998-7.916,17.016-18.613,8.794-32.666,11.51-42.916,11.51ZM508.219,803.663c1.353,0,2.76.185,4.226.615,8.732,2.557,11.787,11.558,14.74,20.261,2.53,7.456,5.147,15.164,11.143,19.689,8.799,6.644,29.196,8.548,60.046-6.031,4.37-2.065,6.648-6.965,5.415-11.653-2.042-7.765-4.475-16.759-7.522-25.214-6.726-18.667-13.334-30.709-18.158-39.501-6.038-11.001-9.363-17.062-5.83-23.963,4.914-9.592,16.353-11.124,26.445-12.471,8.228-1.101,15.999-2.139,18.026-7.282,2.628-6.664.881-20.628-6.591-32.461-4.437-7.028-12.365-15.585-24.943-16.453-5.296-.369-6.526.9-8.226,2.655-4.696,4.851-9.548,9.857-60.642-5.671-6.042-1.838-10.398-1.827-12.943.029-3.548,2.589-3.639,8.815-3.712,13.817-.062,4.251-.106,7.324-2.157,8.824-.68.498-1.837.986-3.496.488l-.348-.106q-26.134-7.872-37.913-4.905l-1.251.314c-7.305,1.832-13.411,16.682-11.88,28.891.893,7.119,4.129,11.87,8.61,18.448,5.452,8.005,12.238,17.968,18.581,36.973,3.079,9.228,4.711,17.132,6.022,23.481,2.27,10.995,3.573,16.358,8.315,18.145,3.926,1.477,7.561-.498,11.773-2.779,3.631-1.967,7.636-4.141,12.27-4.141Z"/>
                  </g>
                  <g>
                    <path style="fill: #fff;" d="M519.474,745.341s18.52,45.074,22.25,54.686c11.954,30.801,50.052-2.463,50.052-2.463l2.719-8.411,5.095-2.009c.985-.389,1.899-.983,2.56-1.814,1.65-2.076,1.689-4.854.325-6.916-6.772-10.243-20.211-32.061-26.688-52.927-1.517-4.888-6.89-7.319-11.97-7.655-31.808-2.106-73.747-11.967-52.736,14.885,3.118,3.985,6.05,8.134,8.393,12.624Z"/>
                    <path d="M521.573,744.363l22.58,55.269c1.702,4.273,4.463,7.984,8.29,9.734,3.81,1.809,8.498,1.609,12.963.428,4.495-1.196,8.865-3.257,13.02-5.684,4.135-2.429,8.185-5.273,11.806-8.315l-.69,1.046,2.73-8.407c.221-.685.745-1.204,1.365-1.454l5.206-2.045c.604-.251,1.1-.597,1.425-.976.355-.425.643-.963.762-1.511.136-.552.122-1.137-.015-1.689-.145-.617-.318-.895-.892-1.855-.964-1.635-1.842-3.323-2.741-4.994-1.727-3.384-3.808-6.541-5.691-9.825-1.895-3.277-3.76-6.571-5.514-9.931-3.533-6.7-6.851-13.541-9.633-20.641-.672-1.785-1.369-3.56-1.962-5.381l-.463-1.357-.232-.68-.199-.513c-.291-.664-.643-1.302-1.141-1.856-1.936-2.274-5.319-3.497-8.618-3.724-7.514-.458-15.084-1.17-22.536-1.953-7.457-.727-14.941-1.504-22.216-1.339-3.546.113-7.364.482-9.799,1.878-1.158.745-1.567,1.413-1.604,2.609,0,1.223.553,2.802,1.324,4.291,1.532,3.068,3.905,5.797,6.216,8.948,2.291,3.143,4.358,6.262,6.259,9.927ZM517.374,746.317c-1.582-3.009-3.656-6.199-5.818-9.121-2.126-2.909-4.767-5.886-6.637-9.57-.921-1.842-1.805-3.869-1.854-6.435-.01-1.272.32-2.709,1.062-3.911.73-1.211,1.773-2.111,2.804-2.733,2.093-1.24,4.173-1.685,6.182-2.041,2.011-.313,3.984-.453,5.932-.502,7.785-.149,15.311.675,22.821,1.421,7.519.753,14.91,1.725,22.413,2.287,4.107.414,8.411,1.868,11.395,5.419.737.871,1.305,1.902,1.733,2.969l.288.811.21.661.422,1.322c.535,1.771,1.179,3.513,1.796,5.262,2.577,6.965,5.608,13.801,9.043,20.437,1.702,3.326,3.517,6.597,5.362,9.851,1.869,3.238,3.698,6.513,5.972,9.502l3.36,4.502c.478.59,1.351,1.92,1.637,3.152.33,1.269.353,2.62.05,3.899-.294,1.288-.9,2.468-1.751,3.482-.903,1.052-2.024,1.766-3.15,2.242l-5.295,2.099,1.365-1.454-2.707,8.415-.011.033c-.131.407-.375.755-.679,1.013-3.975,3.355-8.081,6.242-12.497,8.862-4.406,2.582-9.087,4.837-14.198,6.217-5.039,1.339-10.903,1.782-16.209-.681-2.624-1.187-4.88-3.083-6.64-5.238-1.76-2.17-3.062-4.585-4.057-7.05l-22.343-55.125Z"/>
                  </g>
                  <path style="fill: #fff;" d="M522.865,774.355s-13.357-25.678-23.698-17.099c-10.341,8.579,5.071,36.475,23.698,17.099Z"/>
                </g>
                <g>
                  <path d="M573.469,779.94c-.499,0-1.01-.027-1.534-.079-2.095-.21-4.161-1.827-5.815-4.557-3.203-5.278-4.957-15.092-.273-26.797.781-1.956,2.519-3.602,4.767-4.516,2.749-1.124,5.89-1.018,8.847.294,4.003,1.777,6.117,6.207,6.461,13.545.441,9.425-1.142,15.709-4.838,19.212-2.031,1.927-4.587,2.897-7.615,2.897ZM574.608,747.854c-.986,0-1.758.226-2.248.425-1.263.516-1.972,1.343-2.213,1.947-4.051,10.124-2.691,18.353-.068,22.676,1.135,1.872,2.117,2.329,2.318,2.35,2.34.233,4.138-.276,5.501-1.569,2.587-2.451,3.762-7.858,3.398-15.635-.376-8.043-2.884-9.163-3.711-9.529-1.12-.495-2.128-.665-2.977-.665Z"/>
                  <path d="M510.786,755.033c-1.159,0-2.161-.871-2.296-2.049-.147-1.271.763-2.42,2.034-2.567l62.213-7.191c1.274-.149,2.42.764,2.565,2.033.147,1.271-.763,2.42-2.034,2.567l-62.213,7.191c-.09.011-.18.016-.269.016Z"/>
                  <path d="M600.567,773.775c-.882,0-1.725-.507-2.112-1.364-.501-1.11-.054-2.408.998-2.983,1.734-1.649,5.623-13.274.932-21.566-.691-1.221-1.56-1.902-2.734-2.139-3.384-.685-8.281,2.368-9.884,3.602-1.011.776-2.467.588-3.246-.421-.781-1.011-.596-2.463.415-3.245.757-.586,7.567-5.698,13.623-4.477,2.486.5,4.511,2.022,5.857,4.4,3.868,6.836,3.182,15.587,1.251,21.496-.808,2.472-2.183,5.604-4.147,6.49-.31.14-.633.206-.952.206ZM599.408,769.47h0ZM599.613,769.35h-.002.002Z"/>
                </g>
              </g>
              <g>
                <g>
                  <path style="fill: #fff;" d="M960.333,718.039l-17.98,16.913c-2.546,2.395-5.522,4.279-8.769,5.552l-11.162,4.376c-10.551,6.731-15.931,18.387-14.473,31.358l2.409,24.296c.399,4.023-1.633,7.215-3.273,10.611-4.385,9.084-9.441,18.835-9.441,18.835,0,0,21.903,23.246,27.378,12.257,3.368-6.762,13.687-28.54,21.178-30.853,21.301-6.577,41.482-39.637,46.955-50.025,1.249-2.37.426-5.302-1.876-6.657,0,0-8.084-6.141-20.886,11.329-3.272,4.465-5.372,9.479-5.734,9.259-7.27-4.425-10.263-13.853-6.322-21.733,1.774-3.546,4.194-7.41,7.498-11.368,3.073-3.681,8.551-11.875,9.891-14.553,3.548-7.093-7.801-17.837-15.394-9.598Z"/>
                  <path d="M920.419,847.499c-9.175.002-22.868-14.237-24.461-15.929-.674-.715-.823-1.78-.37-2.653.05-.097,5.091-9.83,9.412-18.778.249-.518.507-1.029.764-1.54,1.375-2.725,2.563-5.079,2.29-7.836l-2.409-24.298c-1.551-13.794,4.254-26.342,15.532-33.538.127-.081.261-.149.4-.204l11.161-4.376c2.987-1.171,5.688-2.881,8.029-5.083l17.923-16.86c3.961-4.24,9.612-4.837,14.422-1.522,4.174,2.883,7.236,8.695,4.688,13.79-1.413,2.824-7.021,11.212-10.186,15.002-2.889,3.46-5.312,7.135-7.203,10.92-2.972,5.94-1.347,13.17,3.622,17.394,1.018-1.863,2.551-4.672,4.495-7.324,5.825-7.951,11.587-12.39,17.124-13.195,3.833-.558,6.257.857,6.889,1.289,3.308,2.006,4.48,6.239,2.665,9.683-.932,1.766-23.098,43.368-48.321,51.156-6.056,1.87-15.836,21.675-19.049,28.181l-.739,1.495c-1.171,2.352-3.074,3.785-5.502,4.143-.381.057-.773.084-1.174.084ZM900.463,829.569c5.861,5.936,15.697,13.966,20.454,13.265.614-.091,1.4-.357,2.033-1.628l.732-1.477c6.862-13.894,14.822-28.391,21.836-30.555,18.728-5.784,38.011-34.512,45.589-48.892.675-1.282.235-2.856-1.002-3.584-.078-.045-.154-.095-.226-.151-2.198-1.49-8.784-1.199-17.617,10.854-1.768,2.413-3.217,5.068-4.174,6.825-1.224,2.243-1.637,3.001-2.788,3.306-.612.163-1.309.063-1.85-.267-8.405-5.115-11.563-15.985-7.183-24.741,2.052-4.104,4.673-8.082,7.791-11.815,2.94-3.523,8.313-11.537,9.599-14.106,1.311-2.623-.629-6.146-3.177-7.906-1.399-.97-5.019-2.811-8.444.911-.037.041-.076.079-.116.118l-17.981,16.915c-2.771,2.607-5.971,4.633-9.511,6.02l-10.946,4.292c-9.632,6.243-14.575,17.077-13.232,29.028l2.413,24.327c.406,4.095-1.278,7.433-2.763,10.38-.245.486-.492.972-.729,1.465-3.348,6.935-7.123,14.334-8.707,17.417ZM965.854,773.307s.007.002.01.004c-.003-.002-.007-.002-.01-.004ZM960.334,718.038h.023-.023Z"/>
                </g>
                <g>
                  <path style="fill: #fff;" d="M562.208,916.036c33.088,4.366,90.568,23.313,189.103-6.721,73.593-22.431,142.578-96.109,142.578-96.109l50.014,24.027-22.392,39.13c-38.409,69.483-78.383,123.805-176.352,146.996l-140.905,24.113-42.046-131.435Z"/>
                  <path d="M604.254,1049.788c-.992,0-1.894-.638-2.205-1.61l-42.047-131.435c-.241-.755-.079-1.583.43-2.191.508-.608,1.293-.916,2.079-.809,5.13.676,10.686,1.671,17.119,2.824,35.092,6.291,88.123,15.8,171.007-9.468,72.14-21.987,140.877-94.743,141.562-95.475.694-.737,1.784-.941,2.693-.504l50.015,24.026c.579.278,1.017.785,1.209,1.4.19.613.118,1.28-.201,1.838l-22.392,39.13c-35.521,64.258-75.864,123.961-177.83,148.098l-141.047,24.142c-.131.023-.262.034-.391.034ZM565.54,918.853l40.307,125.998,138.922-23.773c100.114-23.706,138.365-80.073,174.717-145.835l21.172-37-46.259-22.224c-9.477,9.776-74.317,74.757-142.412,95.511-83.953,25.587-137.643,15.965-173.174,9.595-4.875-.873-9.242-1.655-13.273-2.273Z"/>
                </g>
                <g>
                  <path style="fill: #fff;" d="M471.956,861.019c-3.627-3.857-9.99-2.868-12.24,1.934-5.083,10.851-14.591,27.95-28.367,39.717-21.611,18.461-54.464,19.495-73.572,65.249-33.268,79.659-16.312,265.307,14.679,351.905,6.232,17.415,2.696,57.874,2.696,57.874l248.037-3.36s-27.887-160.941-8.149-259.912c8.171-40.969,26.323-108.851-19.574-169.637-10.455-13.846-20.624-27.908-29.898-42.58l-6.352-10.05c-2.24-3.544-6.382-5.337-10.492-4.602-.202.036-.405.072-.609.108-27.585,4.81-55.711-4.908-74.951-25.365l-1.206-1.282Z"/>
                  <path d="M375.151,1380.015c-.643,0-1.258-.267-1.696-.739-.445-.479-.668-1.126-.61-1.777.035-.4,3.42-40.157-2.569-56.893-29.462-82.326-49.02-271.245-14.636-353.578,13.514-32.355,33.994-43.017,52.066-52.424,8.046-4.19,15.647-8.148,22.141-13.695,13.137-11.223,22.354-27.369,27.774-38.938,1.379-2.944,4.114-5.007,7.318-5.518,3.21-.504,6.468.601,8.706,2.978l1.206,1.282c18.909,20.108,46.153,29.336,72.865,24.669l.6-.104c5.065-.916,10.115,1.305,12.857,5.644l6.352,10.049c7.977,12.62,17.165,25.704,29.788,42.422,43.501,57.614,30.394,121.064,21.721,163.05-.604,2.922-1.186,5.737-1.724,8.435-19.426,97.409,7.882,257.458,8.16,259.063.115.669-.067,1.352-.5,1.875-.433.522-1.073.828-1.75.837l-248.036,3.36h-.032ZM466.509,860.961c-.279,0-.561.023-.843.068-1.711.271-3.115,1.332-3.852,2.906-5.614,11.983-15.195,28.737-28.961,40.498-6.895,5.889-14.722,9.963-23.01,14.278-18.222,9.486-37.063,19.294-49.93,50.104-33.99,81.385-14.501,268.57,14.722,350.231,5.485,15.325,3.694,47.024,3.022,56.305l242.803-3.29c-3.498-21.483-25.897-166.809-7.693-258.084.539-2.709,1.123-5.533,1.729-8.466,8.505-41.17,21.357-103.385-20.88-159.323-12.705-16.824-21.96-30.005-30.008-42.739l-6.352-10.049c-1.731-2.738-4.922-4.131-8.126-3.559l-.64.111c-28.241,4.93-57.036-4.819-77.016-26.06l-1.206-1.282v-.002c-1.004-1.067-2.342-1.644-3.76-1.644Z"/>
                </g>
                <path style="fill: #fff;" d="M499.926,987.084s11.704,132.842,46.306,167.953c21.929,22.251,70.893,48.617,118.817,52.546,0,0,29.516.627,12.451,47.981-2.765,7.672-12.261,13.147-20.649,13.973-36.739,3.616-203.948-2.648-232.142-76.416-51.864-135.699-57.957-196.867-57.957-196.867l133.175-9.17Z"/>
                <path d="M638.104,1272.584c-57.135,0-184.541-14.952-215.476-78.452l-1.812-3.72c-42.985-88.216-50.73-104.111-54.896-183.988-.067-1.275.915-2.365,2.191-2.433,1.305-.104,2.367.914,2.433,2.193,4.117,78.934,11.8,94.7,54.434,182.199l1.812,3.722c33.581,68.925,192.307,78.805,229.833,75.126,7.242-.712,16.216-5.565,18.698-12.453,6.244-17.326,6.829-30.476,1.693-38.026-4.457-6.551-11.717-6.845-12.025-6.854-48.05-3.935-97.864-30.365-120.406-53.236-27.847-28.255-41.002-117.374-45.365-154.378-.149-1.271.759-2.422,2.028-2.571,1.287-.149,2.422.758,2.571,2.028,4.308,36.529,17.223,124.436,44.065,151.669,21.956,22.279,70.549,48.028,117.356,51.863.26.002,9.716.299,15.552,8.797,6.147,8.95,5.773,23.174-1.111,42.278-3.22,8.934-14.048,14.651-22.601,15.492-4.75.468-11.215.744-18.975.744Z"/>
                <g>
                  <path style="fill: #fff;" d="M797.157,2161.741l-32.494.062-.206-848.687c-.037-19.619-15.879-35.493-35.383-35.455-16.172.199-29.202,13.398-29.285,29.666l-.203,39.869-33.578.57-.023-38.186c-.021-35.278,28.128-64.034,63.197-64.558l3.505-.052c35.421-.068,64.191,28.76,64.258,64.388l.213,852.383Z"/>
                  <path d="M764.663,2164.12c-.613,0-1.202-.244-1.636-.676-.434-.434-.68-1.024-.68-1.639l-.207-848.689c-.035-18.283-14.834-33.14-33.002-33.14h-.061c-14.787.183-26.898,12.458-26.974,27.362l-.204,39.869c-.007,1.26-1.018,2.282-2.276,2.304l-33.578.57c-.651-.032-1.219-.228-1.662-.665-.443-.434-.693-1.029-.693-1.648l-.023-38.187c-.023-36.335,29.351-66.336,65.478-66.876l3.506-.052h.131c17.733,0,34.385,6.917,46.929,19.488,12.572,12.598,19.513,29.363,19.547,47.212l.214,852.388c0,1.278-1.033,2.313-2.311,2.316l-32.494.063h-.005ZM729.116,1275.345c20.742,0,37.616,16.926,37.655,37.766l.206,846.373,27.864-.054-.214-850.073c-.032-16.612-6.492-32.219-18.195-43.944-11.668-11.693-27.157-18.129-43.622-18.129h-.121l-3.476.052c-33.609.502-60.936,28.425-60.915,62.241l.022,35.833,28.96-.491.192-37.603c.088-17.417,14.252-31.758,31.573-31.97h.071Z"/>
                </g>
                <g>
                  <path style="fill: #fff;" d="M670.439,1225.027c-14.552,3.165-19.271,28.878-4.72,31.648,4.757.905,21.239-2.636,50.091.991,22.991,2.891,38.557,32.304,53.207,17.791,14.65-14.513-26.324-62.229-55.671-60.472-15.771.944-24.834,6.112-42.908,10.043Z"/>
                  <path d="M760.357,1281.754c-6.682,0-13.501-4.855-20.172-9.604-7.266-5.172-15.502-11.035-24.663-12.186-19.399-2.438-33.212-1.596-41.466-1.094-4.193.258-6.962.425-8.769.081-6.513-1.239-10.618-6.718-10.716-14.298-.119-9.088,5.601-19.762,15.377-21.887,6.92-1.504,12.401-3.164,17.703-4.767,8.388-2.539,15.633-4.731,25.557-5.325,21.464-1.298,48.943,21.962,58.262,42.818,4.153,9.296,3.861,16.971-.822,21.609-3.366,3.335-6.809,4.654-10.29,4.654ZM689.714,1253.679c7.234,0,16.025.387,26.385,1.689,10.319,1.298,19.061,7.519,26.773,13.009,11.149,7.937,17.782,12.1,24.517,5.434,4.338-4.299,1.77-12.141-.148-16.431-8.537-19.104-34.445-41.269-53.756-40.086-9.381.563-16.384,2.682-24.493,5.135-5.137,1.554-10.959,3.315-18.06,4.862-7.364,1.601-11.822,10.226-11.731,17.301.034,2.558.777,8.631,6.952,9.807,1.236.237,4.055.061,7.622-.154,4.017-.244,9.328-.568,15.939-.568ZM670.439,1225.028h.023-.023Z"/>
                </g>
              </g>
            </g>
          </g>
        </g>
        <g>
          <g>
            <g>
              <path style="fill: #fff;" d="M1140.834,2067.668l.03,38.813c.017,11.762-13.588,23.553-40.918,32.676-54.663,18.243-143.868,19.014-201.011,1.954-.939-.28-1.865-.564-2.786-.854-28.952-9.112-43.495-21.227-43.512-33.374l-.03-38.813c.017,12.147,14.56,24.262,43.512,33.374.922.29,1.847.574,2.786.854,57.143,17.06,146.349,16.289,201.011-1.954,27.331-9.123,40.935-20.914,40.918-32.676Z"/>
              <path d="M996.195,2155.801c-34.985,0-69.999-4.134-97.923-12.471-.951-.283-1.889-.57-2.822-.866-29.082-9.152-45.11-21.786-45.129-35.577l-.031-38.811c-.001-1.28,1.035-2.318,2.313-2.32h.002c1.278,0,2.313,1.033,2.316,2.311.017,11.435,15.287,22.796,41.892,31.168.914.289,1.826.567,2.754.846,56.41,16.84,145.958,15.972,199.616-1.931,25.012-8.349,39.35-19.459,39.336-30.478-.001-1.28,1.035-2.316,2.313-2.318h.002c1.278,0,2.313,1.036,2.316,2.313v.02l.029,38.793c.019,13.335-15.074,25.72-42.5,34.874-28.77,9.602-66.609,14.448-104.484,14.448ZM854.931,2080.623l.02,26.258c.016,11.433,15.285,22.794,41.892,31.166.914.29,1.827.568,2.753.846,56.413,16.845,145.959,15.972,199.617-1.931,25.014-8.349,39.35-19.459,39.334-30.478l-.02-26.267c-6.401,8.451-19.315,16.128-37.879,22.324-55.345,18.468-144.253,19.339-202.406,1.976-.951-.283-1.888-.57-2.822-.866-19.972-6.284-33.788-14.21-40.489-23.027Z"/>
            </g>
            <g>
              <path style="fill: #fff;" d="M1094.521,2033.436c.943.282,1.868.565,2.793.856,56.995,17.935,58.158,47.507,2.601,66.051-54.663,18.243-143.868,19.014-201.011,1.954-.939-.28-1.865-.564-2.786-.854-56.988-17.935-58.15-47.507-2.593-66.052,54.655-18.241,143.854-19.013,200.996-1.957Z"/>
              <path d="M996.164,2116.988c-34.985,0-69.998-4.134-97.922-12.471-.951-.283-1.888-.57-2.822-.866-28.982-9.12-45.01-21.711-45.129-35.451-.117-13.385,14.978-25.818,42.502-35.003,55.339-18.47,144.24-19.337,202.391-1.979.954.283,1.89.572,2.827.866,28.989,9.122,45.019,21.713,45.138,35.453.117,13.385-14.977,25.818-42.5,35.003-28.77,9.602-66.609,14.448-104.484,14.448ZM997.394,2023.573c-37.617,0-75.227,4.701-103.136,14.016-25.094,8.378-39.432,19.52-39.337,30.573.1,11.399,15.368,22.726,41.892,31.073.914.289,1.826.567,2.754.846,56.41,16.84,145.958,15.972,199.616-1.931,25.094-8.378,39.431-19.52,39.336-30.571-.1-11.401-15.371-22.728-41.9-31.075-.914-.29-1.827-.57-2.758-.846,0-.002-.001-.002-.002-.002-27.065-8.077-61.769-12.082-96.465-12.082Z"/>
            </g>
          </g>
          <g>
            <g>
              <path style="fill: #fff;" d="M1109.844,2021.821l.03,38.813c.017,11.762-13.588,23.553-40.918,32.676-54.663,18.243-143.868,19.014-201.011,1.954-.939-.28-1.864-.564-2.786-.854-28.952-9.112-43.495-21.227-43.512-33.374l-.03-38.813c.017,12.147,14.56,24.262,43.512,33.374.922.29,1.847.574,2.786.854,57.143,17.06,146.349,16.289,201.011-1.954,27.331-9.123,40.935-20.914,40.919-32.676Z"/>
              <path d="M965.205,2109.955c-34.985,0-69.998-4.134-97.922-12.471-.951-.283-1.888-.57-2.822-.866-29.082-9.152-45.11-21.785-45.13-35.575l-.029-38.813v-.002c-.001-1.28,1.035-2.316,2.313-2.318h.002c1.278,0,2.313,1.033,2.316,2.313.016,11.433,15.285,22.794,41.892,31.165.912.289,1.826.568,2.753.846,56.411,16.84,145.959,15.972,199.616-1.931,25.014-8.351,39.352-19.461,39.336-30.478-.001-1.28,1.034-2.316,2.313-2.318h.002c1.278,0,2.313,1.033,2.316,2.313v.023l.03,38.791c.019,13.333-15.075,25.718-42.5,34.874-28.771,9.602-66.61,14.448-104.485,14.448ZM823.941,2034.777l.02,26.258c.017,11.433,15.287,22.794,41.892,31.166.914.289,1.826.567,2.754.846,56.411,16.842,145.959,15.969,199.616-1.931,25.014-8.351,39.351-19.461,39.336-30.478l-.02-26.267c-6.402,8.451-19.315,16.128-37.879,22.324-55.347,18.468-144.254,19.339-202.407,1.976-.952-.283-1.888-.57-2.822-.866-19.971-6.284-33.786-14.212-40.489-23.027Z"/>
            </g>
            <g>
              <path style="fill: #fff;" d="M1063.532,1987.59c.943.282,1.868.565,2.793.856,56.995,17.935,58.158,47.507,2.601,66.052-54.663,18.243-143.868,19.014-201.011,1.954-.939-.28-1.864-.564-2.786-.854-56.988-17.935-58.15-47.507-2.593-66.052,54.655-18.24,143.854-19.013,200.996-1.956Z"/>
              <path d="M965.174,2071.142c-34.985,0-69.998-4.134-97.922-12.471-.952-.283-1.888-.57-2.822-.866-28.981-9.12-45.009-21.711-45.128-35.451-.116-13.385,14.978-25.817,42.502-35.003,55.338-18.468,144.238-19.337,202.39-1.979.952.283,1.887.57,2.822.864,28.993,9.124,45.025,21.716,45.144,35.455.115,13.385-14.979,25.817-42.502,35.003-28.77,9.602-66.609,14.448-104.484,14.448ZM966.405,1977.727c-37.617,0-75.227,4.703-103.136,14.016-25.094,8.378-39.432,19.52-39.337,30.573.1,11.399,15.368,22.726,41.892,31.073.912.289,1.826.568,2.753.846,56.411,16.84,145.959,15.972,199.616-1.931,25.094-8.378,39.431-19.52,39.336-30.571-.098-11.402-15.37-22.729-41.899-31.077-.911-.285-1.826-.568-2.759-.843,0-.002-.001-.002-.002-.002-27.065-8.077-61.768-12.082-96.463-12.082Z"/>
            </g>
          </g>
          <g>
            <g>
              <path d="M1135.782,1965.875l.03,38.813c.017,11.762-13.588,23.553-40.918,32.676-54.663,18.243-143.868,19.014-201.011,1.954-.939-.28-1.864-.564-2.786-.854-28.952-9.112-43.495-21.227-43.512-33.374l-.03-38.813c.017,12.147,14.56,24.262,43.512,33.374.922.29,1.847.574,2.786.854,57.143,17.06,146.349,16.289,201.011-1.954,27.331-9.123,40.935-20.914,40.918-32.676Z"/>
              <path d="M991.143,2054.008c-34.988.002-69.996-4.131-97.923-12.471-.95-.283-1.886-.57-2.818-.862-29.086-9.156-45.114-21.792-45.134-35.582l-.03-38.811c-.001-1.28,1.034-2.318,2.313-2.32h.002c1.278,0,2.313,1.033,2.316,2.311.017,11.435,15.287,22.796,41.892,31.17.91.287,1.825.565,2.754.844,56.41,16.84,145.958,15.974,199.616-1.931,25.012-8.349,39.35-19.459,39.336-30.478-.001-1.28,1.034-2.316,2.313-2.318h.002c1.278,0,2.313,1.036,2.316,2.313v.02l.029,38.793c.019,13.335-15.074,25.72-42.5,34.874-28.766,9.602-66.614,14.448-104.484,14.448ZM849.88,1978.828l.02,26.261c.016,11.433,15.285,22.794,41.892,31.168.91.287,1.826.565,2.753.843,56.412,16.84,145.959,15.976,199.617-1.931,25.014-8.349,39.35-19.459,39.335-30.478l-.02-26.267c-6.401,8.45-19.315,16.128-37.879,22.324-55.345,18.47-144.253,19.343-202.406,1.976-.95-.283-1.885-.57-2.818-.862-19.975-6.286-33.791-14.217-40.494-23.034Z"/>
            </g>
            <g>
              <path style="fill: #fff;" d="M1089.47,1931.644c.943.282,1.868.565,2.793.856,56.995,17.935,58.158,47.507,2.601,66.052-54.663,18.243-143.868,19.014-201.011,1.954-.939-.28-1.864-.564-2.786-.854-56.988-17.935-58.15-47.507-2.593-66.052,54.655-18.241,143.854-19.013,200.996-1.957Z"/>
              <path d="M991.113,2015.194c-34.988,0-69.995-4.131-97.922-12.471-.95-.283-1.885-.57-2.818-.862-28.988-9.124-45.016-21.715-45.134-35.455-.115-13.385,14.978-25.817,42.502-35.003,55.341-18.473,144.24-19.339,202.391-1.979h.002c.953.287,1.888.572,2.824.866,28.989,9.122,45.021,21.713,45.139,35.455.115,13.385-14.979,25.815-42.502,35.001-28.766,9.602-66.614,14.448-104.484,14.448ZM992.344,1921.779c-37.618,0-75.227,4.703-103.138,14.016-25.094,8.378-39.432,19.52-39.337,30.573.098,11.399,15.368,22.726,41.892,31.075.91.287,1.825.565,2.754.844,56.41,16.84,145.958,15.974,199.616-1.931,25.094-8.376,39.431-19.517,39.336-30.571-.098-11.402-15.37-22.729-41.899-31.075-.916-.289-1.831-.568-2.763-.848-27.062-8.077-61.766-12.082-96.461-12.082Z"/>
            </g>
            <path d="M1071.924,1953.892l4.979,6-17.338,2.427c2.807,4.186,2.329,7.328.857,9.791l-23.739,1.342c.843-1.895,3.046-5.346-.611-9.757-1.514-1.826-3.721-2.923-6.198-3.499-2.919-.68-6.213-.638-9.196-.221-6.505.913-8.862,3.634-10.861,9.722-2.228,8.445-10.634,12.903-28.361,15.386-11.621,1.628-23.518,1.405-33.069-.819-4.865-1.133-9.12-2.784-12.421-4.974l-20.096,2.815-4.979-6,18.722-2.623c-2.813-4.184-2.561-8.661-.156-11.597l24.576-1.39c-2.4,3.206-3.544,7.399-.245,11.377,1.506,1.821,3.946,3.176,7.054,3.9,2.851.664,6.263.796,10.033.268,7.49-1.048,10.592-3.669,11.761-8.892,1.661-7.545,7.809-13.394,26.925-16.072,11.468-1.606,22.678-1.321,31.72.784,4.628,1.078,8.687,2.631,11.926,4.653l18.717-2.621Z"/>
          </g>
        </g>
        <g>
          <g>
            <g>
              <path d="M1465.51,2063.65l.032,40.731c.017,12.343-14.259,24.718-42.941,34.291-57.364,19.145-150.979,19.954-210.946,2.051-.986-.294-1.957-.592-2.924-.896-30.383-9.562-45.645-22.276-45.663-35.024l-.032-40.732c.018,12.747,15.28,25.461,45.663,35.024.967.304,1.938.602,2.924.896,59.967,17.903,153.582,17.094,210.946-2.051,28.682-9.574,42.958-21.948,42.941-34.291Z"/>
              <path d="M1313.72,2156.025c-36.701,0-73.433-4.335-102.728-13.082-.996-.296-1.979-.599-2.958-.907-30.469-9.59-47.262-22.81-47.282-37.23l-.032-40.729v-.002c-.001-1.28,1.034-2.316,2.313-2.318h.002c1.278,0,2.313,1.033,2.316,2.313.017,12.053,16.07,24.015,44.043,32.816.958.303,1.918.595,2.891.886,59.225,17.681,153.228,16.77,209.551-2.028,26.299-8.778,41.374-20.474,41.358-32.093-.001-1.28,1.035-2.316,2.313-2.318,1.335.07,2.316,1.033,2.318,2.313v.02l.032,40.713c.019,13.939-15.793,26.898-44.524,36.489-30.181,10.074-69.879,15.155-109.613,15.155ZM1165.362,2076.906l.021,27.896c.017,12.053,16.07,24.015,44.043,32.816.958.303,1.918.597,2.891.889,59.219,17.677,153.222,16.77,209.551-2.028,26.299-8.781,41.374-20.476,41.358-32.093l-.022-27.907c-6.628,8.955-20.24,17.096-39.903,23.658-58.055,19.382-151.326,20.291-212.341,2.074-.996-.296-1.979-.597-2.958-.904-21.147-6.655-35.705-15.06-42.641-24.4Z"/>
            </g>
            <g>
              <path style="fill: #fff;" d="M1416.908,2027.727c.99.295,1.96.593,2.932.898,59.812,18.822,61.032,49.855,2.729,69.316-57.364,19.145-150.979,19.954-210.946,2.051-.986-.294-1.956-.592-2.924-.896-59.804-18.822-61.024-49.855-2.721-69.316,57.357-19.142,150.964-19.953,210.93-2.053Z"/>
              <path d="M1313.692,2115.294c-36.701,0-73.435-4.337-102.732-13.084-.996-.296-1.979-.597-2.958-.904-30.365-9.556-47.156-22.731-47.281-37.097-.121-13.993,15.691-27,44.524-36.624,58.05-19.375,151.314-20.289,212.325-2.076,1.002.301,1.985.599,2.968.911,30.367,9.554,47.162,22.731,47.285,37.097.121,13.993-15.69,26.998-44.523,36.62-30.18,10.074-69.876,15.158-109.61,15.158ZM1314.981,2017.261c-39.489,0-78.973,4.939-108.27,14.714-26.384,8.808-41.459,20.542-41.358,32.192.104,12.019,16.156,23.943,44.041,32.719.958.303,1.918.595,2.891.886,59.225,17.681,153.228,16.77,209.551-2.028,26.384-8.806,41.459-20.54,41.358-32.19-.104-12.017-16.159-23.943-44.051-32.719-.962-.305-1.921-.597-2.898-.891-28.414-8.48-64.843-12.684-101.265-12.684Z"/>
            </g>
          </g>
          <g>
            <g>
              <path style="fill: #fff;" d="M1473.876,2007.16l.032,40.732c.017,12.343-14.259,24.718-42.941,34.291-57.364,19.145-150.979,19.954-210.946,2.051-.986-.294-1.957-.592-2.924-.896-30.383-9.562-45.645-22.276-45.663-35.024l-.032-40.731c.018,12.747,15.28,25.461,45.663,35.024.967.304,1.938.602,2.924.896,59.967,17.903,153.582,17.094,210.946-2.051,28.682-9.574,42.958-21.948,42.941-34.291Z"/>
              <path d="M1322.086,2099.535c-36.701,0-73.433-4.335-102.727-13.082-1.001-.301-1.982-.599-2.959-.909-30.468-9.586-47.26-22.808-47.281-37.228l-.032-40.729v-.002c-.001-1.28,1.034-2.315,2.313-2.318h.002c1.278,0,2.313,1.033,2.316,2.313.017,12.051,16.07,24.013,44.043,32.816.954.298,1.914.595,2.89.886,59.219,17.677,153.224,16.77,209.552-2.028,26.3-8.778,41.374-20.474,41.357-32.09-.001-1.28,1.034-2.318,2.313-2.32h.002c1.278,0,2.313,1.033,2.316,2.311v.025l.032,40.708c.02,13.941-15.791,26.901-44.523,36.491-30.182,10.074-69.879,15.155-109.614,15.155ZM1173.729,2020.414l.021,27.898c.017,12.053,16.07,24.015,44.043,32.816.959.303,1.92.597,2.895.889,59.215,17.679,153.218,16.768,209.547-2.028,26.3-8.781,41.374-20.479,41.357-32.093l-.021-27.905c-6.628,8.953-20.24,17.096-39.902,23.656-58.061,19.382-151.333,20.291-212.341,2.074-.995-.296-1.976-.597-2.954-.905-21.149-6.657-35.707-15.06-42.644-24.402Z"/>
            </g>
            <g>
              <path style="fill: #fff;" d="M1425.274,1971.236c.99.295,1.961.593,2.932.899,59.813,18.822,61.032,49.855,2.729,69.316-57.364,19.145-150.979,19.954-210.946,2.051-.986-.294-1.957-.592-2.924-.896-59.804-18.822-61.024-49.855-2.721-69.316,57.357-19.142,150.963-19.953,210.93-2.053Z"/>
              <path d="M1322.055,2058.802c-36.702,0-73.434-4.335-102.728-13.082-.995-.296-1.977-.597-2.954-.905-30.368-9.556-47.161-22.731-47.285-37.097-.12-13.995,15.691-27,44.524-36.624,58.054-19.375,151.32-20.289,212.325-2.076.999.298,1.982.599,2.963.907,30.372,9.559,47.167,22.733,47.291,37.099.121,13.993-15.691,27-44.523,36.622-30.182,10.074-69.879,15.155-109.613,15.155ZM1323.349,1960.771c-39.489,0-78.973,4.936-108.272,14.714-26.384,8.808-41.459,20.542-41.358,32.192.104,12.019,16.157,23.943,44.043,32.719.953.298,1.914.595,2.89.886,59.219,17.677,153.224,16.77,209.552-2.028,26.384-8.808,41.458-20.54,41.357-32.19-.104-12.019-16.159-23.945-44.049-32.721-.96-.303-1.92-.595-2.899-.889-28.412-8.48-64.841-12.684-101.263-12.684Z"/>
            </g>
          </g>
          <g>
            <g>
              <path style="fill: #fff;" d="M1449.908,1950.231l.032,40.731c.017,12.343-14.259,24.718-42.941,34.291-57.364,19.145-150.979,19.954-210.946,2.051-.986-.294-1.957-.592-2.924-.896-30.383-9.562-45.645-22.276-45.663-35.024l-.032-40.732c.018,12.747,15.28,25.461,45.663,35.024.967.304,1.938.602,2.924.896,59.967,17.903,153.582,17.094,210.946-2.051,28.682-9.574,42.958-21.948,42.941-34.291Z"/>
              <path d="M1298.122,2042.606c-36.702,0-73.435-4.337-102.732-13.084-.997-.296-1.979-.597-2.958-.905-30.469-9.59-47.262-22.812-47.282-37.23l-.032-40.729v-.002c-.001-1.28,1.035-2.316,2.313-2.318h.002c1.278,0,2.313,1.033,2.316,2.313.017,12.051,16.07,24.013,44.043,32.816.953.298,1.914.595,2.89.886,59.221,17.677,153.222,16.772,209.552-2.028,26.267-8.769,41.337-20.447,41.357-32.047v-.045c-.001-1.28,1.035-2.316,2.313-2.318h.002c1.278,0,2.313,1.033,2.316,2.311v.025l.033,40.708c.019,13.941-15.793,26.901-44.524,36.489-30.18,10.074-69.876,15.158-109.61,15.158ZM1149.76,1963.485l.021,27.898c.017,12.051,16.07,24.013,44.043,32.816.958.303,1.917.595,2.89.886,59.224,17.681,153.227,16.772,209.552-2.028,26.299-8.778,41.374-20.474,41.358-32.093l-.023-27.905c-6.627,8.955-20.239,17.096-39.902,23.658-58.059,19.382-151.332,20.291-212.341,2.074-.995-.296-1.977-.597-2.954-.905-21.149-6.657-35.707-15.06-42.644-24.402Z"/>
            </g>
            <g>
              <path style="fill: #fff;" d="M1401.306,1914.307c.99.295,1.96.593,2.932.899,59.812,18.822,61.032,49.855,2.729,69.316-57.364,19.145-150.979,19.954-210.946,2.051-.986-.294-1.957-.592-2.924-.896-59.804-18.822-61.024-49.855-2.721-69.316,57.357-19.142,150.964-19.953,210.93-2.053Z"/>
              <path d="M1298.087,2001.873c-36.701,0-73.434-4.335-102.728-13.082-.995-.296-1.977-.597-2.954-.905-30.369-9.559-47.161-22.733-47.285-37.099-.12-13.993,15.692-26.998,44.524-36.622,58.055-19.375,151.321-20.286,212.325-2.076,1,.296,1.982.599,2.963.907,30.372,9.556,47.167,22.733,47.291,37.099.121,13.993-15.691,26.998-44.523,36.622-30.182,10.074-69.879,15.155-109.613,15.155ZM1299.38,1903.843c-39.489,0-78.973,4.936-108.272,14.714-26.384,8.808-41.458,20.54-41.358,32.192.104,12.017,16.157,23.943,44.043,32.719.953.298,1.914.595,2.89.886,59.222,17.677,153.224,16.77,209.552-2.028,26.384-8.808,41.458-20.54,41.357-32.192-.104-12.017-16.159-23.943-44.049-32.719-.959-.303-1.919-.597-2.896-.886-.001-.002-.002-.002-.003-.002-28.411-8.48-64.84-12.684-101.263-12.684Z"/>
            </g>
          </g>
          <g>
            <g>
              <path style="fill: #fff;" d="M1479.62,1903.335l.032,40.732c.017,12.343-14.259,24.718-42.941,34.291-57.364,19.145-150.979,19.954-210.946,2.051-.986-.294-1.957-.592-2.924-.896-30.383-9.562-45.645-22.276-45.663-35.024l-.032-40.732c.018,12.747,15.28,25.461,45.663,35.024.967.304,1.938.602,2.924.896,59.967,17.903,153.582,17.094,210.946-2.051,28.682-9.574,42.958-21.948,42.941-34.291Z"/>
              <path d="M1327.831,1995.709c-36.701,0-73.434-4.335-102.728-13.082-.995-.296-1.975-.597-2.953-.905-30.474-9.59-47.266-22.814-47.286-37.233l-.032-40.729v-.002c-.001-1.28,1.035-2.316,2.313-2.318h.002c1.278,0,2.313,1.033,2.316,2.313.017,12.053,16.07,24.015,44.043,32.816.959.303,1.919.597,2.895.889,59.218,17.681,153.22,16.772,209.547-2.028,26.299-8.781,41.374-20.478,41.358-32.095-.001-1.28,1.034-2.316,2.313-2.318h.002c1.278,0,2.313,1.036,2.316,2.313v.02l.032,40.713c.019,13.939-15.793,26.898-44.524,36.489-30.182,10.074-69.879,15.155-109.613,15.155ZM1179.472,1916.59l.021,27.896c.017,12.053,16.07,24.015,44.043,32.819.954.298,1.914.595,2.89.887,59.221,17.677,153.224,16.77,209.552-2.028,26.299-8.781,41.374-20.476,41.358-32.093l-.022-27.907c-6.628,8.955-20.24,17.098-39.903,23.66-58.059,19.379-151.331,20.291-212.341,2.074-.999-.301-1.98-.599-2.958-.907-21.147-6.655-35.705-15.058-42.641-24.4Z"/>
            </g>
            <g>
              <path style="fill: #fff;" d="M1431.019,1867.411c.99.295,1.96.593,2.932.899,59.812,18.822,61.032,49.855,2.729,69.316-57.364,19.145-150.979,19.954-210.946,2.051-.986-.294-1.957-.592-2.924-.896-59.804-18.822-61.024-49.855-2.721-69.316,57.357-19.142,150.964-19.953,210.93-2.053Z"/>
              <path d="M1327.799,1954.978c-36.701,0-73.434-4.335-102.728-13.082-.999-.301-1.98-.599-2.958-.907-30.365-9.556-47.158-22.731-47.281-37.097-.121-13.993,15.691-27,44.524-36.624,58.05-19.375,151.313-20.288,212.324-2.076h.001c1.001.299,1.981.602,2.962.909,30.372,9.556,47.167,22.733,47.291,37.097.121,13.995-15.69,27-44.523,36.624-30.182,10.074-69.879,15.155-109.613,15.155ZM1329.092,1856.945c-39.489,0-78.973,4.939-108.27,14.714-26.385,8.808-41.46,20.542-41.36,32.192.104,12.019,16.157,23.943,44.043,32.719.959.303,1.919.597,2.895.889,59.214,17.679,153.218,16.768,209.547-2.028,26.384-8.808,41.458-20.542,41.357-32.192-.104-12.017-16.159-23.943-44.049-32.719-.96-.303-1.92-.597-2.9-.891-28.412-8.48-64.841-12.684-101.263-12.684Z"/>
            </g>
          </g>
          <g>
            <g>
              <path style="fill: #fff;" d="M1444.474,1856.881l.032,40.731c.017,12.343-14.259,24.718-42.941,34.291-57.364,19.145-150.979,19.954-210.946,2.051-.986-.294-1.957-.592-2.924-.896-30.383-9.562-45.645-22.276-45.663-35.024l-.032-40.732c.018,12.747,15.28,25.461,45.663,35.024.967.304,1.938.602,2.924.896,59.967,17.903,153.582,17.094,210.946-2.051,28.681-9.574,42.958-21.948,42.941-34.291Z"/>
              <path d="M1292.684,1949.254c-36.701,0-73.433-4.335-102.728-13.082-.995-.296-1.975-.597-2.953-.905-30.474-9.593-47.266-22.812-47.286-37.23l-.032-40.731v-.002c-.001-1.28,1.034-2.316,2.313-2.318h.002c1.278,0,2.313,1.033,2.316,2.313.017,12.053,16.07,24.015,44.043,32.816.958.303,1.918.597,2.891.889,59.218,17.677,153.222,16.77,209.551-2.028,26.299-8.781,41.374-20.478,41.358-32.095-.001-1.28,1.035-2.316,2.313-2.318h.002c1.278,0,2.313,1.036,2.316,2.313v.02l.032,40.713c.019,13.939-15.793,26.898-44.524,36.489-30.181,10.074-69.879,15.155-109.613,15.155ZM1144.326,1870.135l.021,27.898c.017,12.05,16.07,24.013,44.043,32.816.954.299,1.916.595,2.891.887,59.219,17.677,153.222,16.772,209.551-2.028,26.299-8.781,41.374-20.476,41.358-32.093l-.022-27.907c-6.628,8.955-20.24,17.098-39.903,23.66-58.057,19.38-151.329,20.291-212.341,2.074-.996-.296-1.979-.599-2.958-.907-21.147-6.655-35.705-15.06-42.641-24.4Z"/>
            </g>
            <g>
              <path style="fill: #fff;" d="M1395.872,1820.957c.99.295,1.96.593,2.931.899,59.813,18.822,61.032,49.855,2.73,69.316-57.364,19.145-150.979,19.954-210.946,2.051-.986-.294-1.957-.592-2.924-.896-59.804-18.822-61.024-49.855-2.721-69.316,57.357-19.142,150.963-19.953,210.93-2.053Z"/>
              <path d="M1292.653,1908.523c-36.701,0-73.433-4.335-102.728-13.082-.996-.296-1.979-.599-2.958-.907-30.365-9.556-47.156-22.731-47.281-37.097-.121-13.993,15.691-27,44.524-36.624,58.05-19.377,151.314-20.286,212.324-2.076h.001c1.001.298,1.981.602,2.962.909,30.372,9.556,47.167,22.733,47.291,37.097.121,13.995-15.69,27-44.523,36.624-30.181,10.074-69.879,15.155-109.613,15.155ZM1293.945,1810.491c-39.489,0-78.973,4.939-108.27,14.714-26.384,8.808-41.459,20.542-41.358,32.192.104,12.019,16.156,23.943,44.041,32.719.958.303,1.918.597,2.891.889,59.218,17.677,153.222,16.77,209.551-2.028,26.384-8.808,41.458-20.542,41.357-32.192-.104-12.017-16.159-23.943-44.049-32.719-.96-.303-1.92-.597-2.9-.891-28.412-8.48-64.841-12.684-101.263-12.684Z"/>
            </g>
          </g>
          <g>
            <g>
              <path d="M1470.068,1804.523l.032,40.732c.017,12.343-14.259,24.718-42.941,34.291-57.364,19.145-150.979,19.954-210.946,2.051-.986-.294-1.957-.592-2.924-.896-30.383-9.562-45.645-22.276-45.663-35.024l-.032-40.731c.018,12.747,15.28,25.461,45.663,35.024.967.304,1.938.602,2.924.896,59.967,17.903,153.582,17.094,210.946-2.051,28.681-9.574,42.958-21.948,42.941-34.291Z"/>
              <path d="M1318.281,1896.898c-36.701,0-73.434-4.337-102.731-13.084-.997-.296-1.98-.597-2.959-.907-30.468-9.588-47.26-22.81-47.281-37.228l-.032-40.729v-.002c-.001-1.28,1.034-2.316,2.313-2.318h.002c1.278,0,2.313,1.033,2.316,2.313.017,12.051,16.07,24.013,44.043,32.816.954.298,1.914.595,2.89.886,59.22,17.677,153.224,16.77,209.552-2.028,26.3-8.778,41.374-20.474,41.357-32.09-.001-1.28,1.035-2.318,2.313-2.32h.002c1.278,0,2.313,1.033,2.316,2.311v.025l.032,40.708c.02,13.941-15.792,26.901-44.523,36.489-30.18,10.074-69.877,15.158-109.611,15.158ZM1169.921,1817.777l.021,27.898c.017,12.051,16.07,24.013,44.043,32.816.957.303,1.917.595,2.89.886,59.224,17.681,153.228,16.77,209.552-2.028,26.3-8.779,41.374-20.474,41.357-32.09l-.022-27.905c-6.628,8.953-20.24,17.096-39.902,23.656-58.06,19.377-151.333,20.289-212.341,2.074-.995-.296-1.976-.597-2.954-.905-21.149-6.657-35.707-15.06-42.644-24.402Z"/>
            </g>
            <g>
              <path style="fill: #fff;" d="M1421.466,1768.599c.99.295,1.96.593,2.931.899,59.813,18.822,61.032,49.855,2.73,69.316-57.364,19.145-150.979,19.954-210.946,2.051-.986-.294-1.957-.592-2.924-.896-59.804-18.822-61.024-49.855-2.721-69.316,57.357-19.142,150.963-19.953,210.93-2.053Z"/>
              <path d="M1318.247,1856.165c-36.702,0-73.434-4.335-102.728-13.082-.995-.296-1.977-.597-2.954-.905-30.37-9.559-47.161-22.733-47.285-37.099-.12-13.993,15.692-26.998,44.524-36.622,58.055-19.375,151.32-20.289,212.326-2.076,1.001.296,1.982.599,2.963.907,30.372,9.556,47.167,22.733,47.291,37.099.121,13.993-15.691,26.998-44.523,36.622-30.182,10.074-69.879,15.155-109.613,15.155ZM1319.541,1758.134c-39.489,0-78.973,4.937-108.272,14.714-26.384,8.808-41.458,20.54-41.358,32.192.104,12.017,16.157,23.943,44.043,32.719.953.298,1.914.595,2.89.886,59.22,17.677,153.224,16.77,209.552-2.028,26.384-8.808,41.458-20.54,41.357-32.192-.104-12.017-16.159-23.943-44.05-32.719-.958-.303-1.918-.597-2.895-.886-.001-.002-.002-.002-.003-.002-28.412-8.48-64.841-12.684-101.263-12.684Z"/>
            </g>
            <path d="M1355.943,1775.888l-7.257,6.348c6.565.85,11.512,1.838,15.344,2.866,2.657.713,4.778,1.445,6.53,2.164l-14.238,7.622c-1.829-.662-4.309-1.659-7.996-2.648-3.382-.907-7.781-1.808-13.625-2.438-11.02-1.191-16.887.447-19.202,2.467-2.719,2.38,1.487,4.533,13.264,8.396,16.714,5.202,20.323,10.049,12.894,16.541-7.336,6.419-24.284,10.747-45.439,10.085l-8.415,7.358-16.616-1.793,7.832-6.852c-6.26-.813-12.024-1.957-16.691-3.209-3.616-.97-6.573-2.005-8.595-3l14.737-7.891c2.618,1.215,5.997,2.471,10.101,3.572,4.098,1.099,8.918,2.043,14.427,2.637,9.666,1.041,18.092.169,21.393-2.718,3.129-2.738-.321-5.054-10.803-8.209-15.179-4.554-23.43-9.497-15.438-16.491,7.264-6.346,23.461-10.19,43.343-9.749l7.833-6.852,16.616,1.793Z"/>
          </g>
        </g>
      </g>
    </g>
  </g>
</svg>